<svg width="1380" height="491" viewBox="0 0 1380 491" fill="none" xmlns="http://www.w3.org/2000/svg">
<path d="M907.13 1.59C907.37 1.87 907.54 2.16 907.64 2.46C907.76 2.76 907.78 3.05 907.7 3.33C907.64 3.59 907.47 3.83 907.19 4.05C906.91 4.27 906.51 4.44 905.99 4.56C905.95 4.56 905.82 4.52 905.6 4.44C905.4 4.36 905.13 4.28 904.79 4.2C904.45 4.1 904.05 4.01 903.59 3.93C903.13 3.85 902.62 3.81 902.06 3.81C901.22 3.81 900.57 3.97 900.11 4.29C899.67 4.59 899.45 4.9 899.45 5.22C899.45 5.58 899.59 6.02 899.87 6.54C900.17 7.06 900.54 7.64 900.98 8.28C901.3 8.78 901.64 9.29 902 9.81C902.38 10.33 902.72 10.89 903.02 11.49C903.34 12.07 903.6 12.71 903.8 13.41C904 14.09 904.1 14.84 904.1 15.66C904.1 16.9 903.86 18.05 903.38 19.11C902.92 20.17 902.28 21.08 901.46 21.84C900.64 22.6 899.68 23.2 898.58 23.64C897.48 24.06 896.3 24.27 895.04 24.27C893.86 24.27 892.87 24.14 892.07 23.88C891.27 23.6 890.61 23.29 890.09 22.95C889.59 22.59 889.23 22.24 889.01 21.9C888.79 21.56 888.68 21.31 888.68 21.15C888.68 21.01 888.78 20.97 888.98 21.03C889.18 21.09 889.47 21.19 889.85 21.33C890.23 21.47 890.69 21.61 891.23 21.75C891.77 21.89 892.39 21.96 893.09 21.96C894.11 21.96 895.09 21.79 896.03 21.45C896.97 21.09 897.8 20.63 898.52 20.07C899.24 19.49 899.81 18.85 900.23 18.15C900.65 17.43 900.86 16.7 900.86 15.96C900.86 15.28 900.74 14.63 900.5 14.01C900.28 13.39 900 12.79 899.66 12.21C899.32 11.63 898.94 11.06 898.52 10.5C898.12 9.92 897.75 9.35 897.41 8.79C897.07 8.23 896.78 7.67 896.54 7.11C896.32 6.53 896.21 5.93 896.21 5.31C896.21 4.35 896.44 3.57 896.9 2.97C897.38 2.35 897.94 1.87 898.58 1.53C899.22 1.17 899.88 0.929999 900.56 0.809998C901.26 0.689999 901.83 0.629999 902.27 0.629999C902.97 0.629999 903.62 0.679999 904.22 0.779999C904.82 0.879998 905.34 0.989999 905.78 1.11C906.3 1.25 906.75 1.41 907.13 1.59ZM919.2 14.37C919.48 14.37 919.88 14.4 920.4 14.46C920.94 14.5 921.52 14.59 922.14 14.73C922.78 14.87 923.42 15.06 924.06 15.3C924.72 15.54 925.32 15.85 925.86 16.23C926.4 16.59 926.84 17.04 927.18 17.58C927.52 18.1 927.69 18.72 927.69 19.44C927.69 20.1 927.5 20.68 927.12 21.18C926.76 21.66 926.28 22.07 925.68 22.41C925.1 22.73 924.44 23 923.7 23.22C922.96 23.42 922.23 23.58 921.51 23.7C920.79 23.82 920.11 23.9 919.47 23.94C918.85 23.98 918.35 24 917.97 24C917.33 24 916.71 23.99 916.11 23.97C915.51 23.95 914.99 23.89 914.55 23.79C914.03 24.95 913.57 26.15 913.17 27.39C912.77 28.65 912.41 29.79 912.09 30.81C911.79 31.85 911.51 32.7 911.25 33.36C911.01 34.04 910.78 34.38 910.56 34.38C910.34 34.38 910.17 34.2 910.05 33.84C909.93 33.5 909.85 33.04 909.81 32.46C909.77 31.88 909.77 31.2 909.81 30.42C909.87 29.66 909.97 28.85 910.11 27.99C910.25 27.15 910.42 26.29 910.62 25.41C910.84 24.55 911.1 23.73 911.4 22.95C910.42 22.51 909.73 22.17 909.33 21.93C908.93 21.67 908.73 21.46 908.73 21.3C908.73 21.2 908.84 21.13 909.06 21.09C909.28 21.03 909.56 21 909.9 21C910.1 21 910.42 21.01 910.86 21.03C911.3 21.05 911.78 21.07 912.3 21.09C912.66 20.23 913.06 19.42 913.5 18.66C913.96 17.9 914.42 17.24 914.88 16.68C914.76 16.36 914.72 16.03 914.76 15.69C914.82 15.35 914.95 15.01 915.15 14.67C915.27 14.65 915.42 14.62 915.6 14.58C915.78 14.54 916.02 14.51 916.32 14.49C916.64 14.45 917.03 14.42 917.49 14.4C917.95 14.38 918.52 14.37 919.2 14.37ZM915.75 21.03C916.11 21.03 916.58 21.02 917.16 21C917.74 20.96 918.35 20.91 918.99 20.85C919.63 20.79 920.27 20.72 920.91 20.64C921.57 20.56 922.15 20.46 922.65 20.34C923.17 20.22 923.59 20.09 923.91 19.95C924.25 19.79 924.42 19.61 924.42 19.41C924.42 19.17 924.2 18.95 923.76 18.75C923.32 18.53 922.77 18.35 922.11 18.21C921.47 18.07 920.78 17.97 920.04 17.91C919.32 17.83 918.67 17.81 918.09 17.85C917.69 18.33 917.29 18.81 916.89 19.29C916.49 19.75 916.11 20.33 915.75 21.03ZM933.357 21.99C932.957 22.51 932.587 22.98 932.247 23.4C931.927 23.82 931.627 24.03 931.347 24.03C931.147 24.03 930.967 23.94 930.807 23.76C930.667 23.56 930.547 23.33 930.447 23.07C930.367 22.79 930.297 22.49 930.237 22.17C930.197 21.85 930.177 21.55 930.177 21.27C930.237 20.93 930.357 20.46 930.537 19.86C930.717 19.24 930.927 18.6 931.167 17.94C931.407 17.28 931.657 16.66 931.917 16.08C932.177 15.48 932.417 15.03 932.637 14.73C933.157 14.79 933.647 14.98 934.107 15.3C934.587 15.6 934.967 15.97 935.247 16.41C934.827 17.35 934.467 18.25 934.167 19.11C933.867 19.95 933.597 20.91 933.357 21.99ZM935.997 9.75C936.117 9.75 936.267 9.76 936.447 9.78C936.627 9.8 936.797 9.86 936.957 9.96C937.137 10.06 937.287 10.23 937.407 10.47C937.527 10.71 937.587 11.04 937.587 11.46C937.587 11.8 937.487 12.1 937.287 12.36C937.087 12.6 936.847 12.8 936.567 12.96C936.307 13.12 936.027 13.25 935.727 13.35C935.447 13.43 935.217 13.47 935.037 13.47C934.677 13.47 934.397 13.41 934.197 13.29C934.017 13.15 933.877 13 933.777 12.84C933.697 12.66 933.647 12.49 933.627 12.33C933.627 12.15 933.627 12.01 933.627 11.91C933.627 11.65 933.697 11.39 933.837 11.13C933.997 10.87 934.187 10.64 934.407 10.44C934.627 10.22 934.877 10.05 935.157 9.93C935.437 9.81 935.717 9.75 935.997 9.75ZM941.683 24.33C941.223 24.33 940.823 24.21 940.483 23.97C940.163 23.71 939.903 23.37 939.703 22.95C939.503 22.53 939.353 22.05 939.253 21.51C939.173 20.97 939.143 20.4 939.163 19.8C939.203 18.74 939.343 17.75 939.583 16.83C939.823 15.89 940.223 15.12 940.783 14.52C941.483 14.42 942.053 14.56 942.493 14.94C942.953 15.3 943.223 15.82 943.303 16.5C943.163 16.76 943.013 17.06 942.853 17.4C942.693 17.72 942.603 18.14 942.583 18.66C943.203 17.64 943.903 16.74 944.683 15.96C945.463 15.16 946.263 14.5 947.083 13.98C947.923 13.44 948.763 13.04 949.603 12.78C950.463 12.5 951.283 12.36 952.063 12.36C952.463 12.36 952.733 12.41 952.873 12.51C953.033 12.59 953.113 12.68 953.113 12.78C953.113 12.9 952.953 13.08 952.633 13.32C952.333 13.56 951.923 13.88 951.403 14.28C950.883 14.66 950.283 15.13 949.603 15.69C948.923 16.25 948.223 16.9 947.503 17.64C946.783 18.38 946.053 19.22 945.313 20.16C944.593 21.1 943.923 22.15 943.303 23.31C942.963 23.99 942.423 24.33 941.683 24.33ZM957.191 21.99C956.791 22.51 956.421 22.98 956.081 23.4C955.761 23.82 955.461 24.03 955.181 24.03C954.981 24.03 954.801 23.94 954.641 23.76C954.501 23.56 954.381 23.33 954.281 23.07C954.201 22.79 954.131 22.49 954.071 22.17C954.031 21.85 954.011 21.55 954.011 21.27C954.071 20.93 954.191 20.46 954.371 19.86C954.551 19.24 954.761 18.6 955.001 17.94C955.241 17.28 955.491 16.66 955.751 16.08C956.011 15.48 956.251 15.03 956.471 14.73C956.991 14.79 957.481 14.98 957.941 15.3C958.421 15.6 958.801 15.97 959.081 16.41C958.661 17.35 958.301 18.25 958.001 19.11C957.701 19.95 957.431 20.91 957.191 21.99ZM959.831 9.75C959.951 9.75 960.101 9.76 960.281 9.78C960.461 9.8 960.631 9.86 960.791 9.96C960.971 10.06 961.121 10.23 961.241 10.47C961.361 10.71 961.421 11.04 961.421 11.46C961.421 11.8 961.321 12.1 961.121 12.36C960.921 12.6 960.681 12.8 960.401 12.96C960.141 13.12 959.861 13.25 959.561 13.35C959.281 13.43 959.051 13.47 958.871 13.47C958.511 13.47 958.231 13.41 958.031 13.29C957.851 13.15 957.711 13 957.611 12.84C957.531 12.66 957.481 12.49 957.461 12.33C957.461 12.15 957.461 12.01 957.461 11.91C957.461 11.65 957.531 11.39 957.671 11.13C957.831 10.87 958.021 10.64 958.241 10.44C958.461 10.22 958.711 10.05 958.991 9.93C959.271 9.81 959.551 9.75 959.831 9.75ZM961.678 19.05C961.498 18.97 961.338 18.82 961.198 18.6C961.058 18.36 960.948 18.1 960.868 17.82C960.808 17.52 960.778 17.21 960.778 16.89C960.798 16.57 960.868 16.26 960.988 15.96C961.428 15.84 961.908 15.73 962.428 15.63C962.868 15.53 963.368 15.44 963.928 15.36C964.508 15.28 965.118 15.22 965.758 15.18C966.158 14.04 966.678 12.8 967.318 11.46C967.958 10.12 968.618 8.82 969.298 7.56C969.998 6.28 970.678 5.1 971.338 4.02C971.998 2.92 972.558 2.04 973.018 1.38C973.278 1.36 973.538 1.37 973.798 1.41C974.078 1.45 974.338 1.54 974.578 1.68C974.818 1.82 975.028 2.02 975.208 2.28C975.408 2.52 975.548 2.84 975.628 3.24C975.428 3.52 975.158 3.93 974.818 4.47C974.478 4.99 974.098 5.6 973.678 6.3C973.278 7 972.848 7.75 972.388 8.55C971.928 9.35 971.488 10.15 971.068 10.95C970.668 11.73 970.288 12.49 969.928 13.23C969.588 13.95 969.328 14.59 969.148 15.15C970.148 15.15 971.048 15.24 971.848 15.42C972.648 15.6 973.328 15.82 973.888 16.08C974.448 16.34 974.878 16.6 975.178 16.86C975.478 17.12 975.628 17.32 975.628 17.46C975.628 17.68 975.338 17.86 974.758 18C974.198 18.14 973.518 18.25 972.718 18.33C971.918 18.39 971.078 18.43 970.198 18.45C969.318 18.47 968.578 18.47 967.978 18.45C967.798 18.93 967.648 19.4 967.528 19.86C967.408 20.26 967.298 20.68 967.198 21.12C967.118 21.56 967.078 21.95 967.078 22.29C967.078 22.65 967.108 22.95 967.168 23.19C967.248 23.41 967.318 23.6 967.378 23.76C967.458 23.9 967.528 24 967.588 24.06C967.668 24.14 967.708 24.21 967.708 24.27C967.708 24.43 967.608 24.51 967.408 24.51C967.288 24.51 967.088 24.47 966.808 24.39C966.528 24.31 966.248 24.14 965.968 23.88C965.708 23.62 965.468 23.24 965.248 22.74C965.048 22.24 964.948 21.57 964.948 20.73C964.948 20.37 964.948 20.02 964.948 19.68C964.968 19.32 964.998 18.93 965.038 18.51C964.098 18.61 963.308 18.72 962.668 18.84C962.308 18.92 961.978 18.99 961.678 19.05Z" fill="#F1F1F1"/>
<circle class="circle-center" opacity="0.3" cx="688" cy="250" r="229" stroke="#F1F1F1" stroke-width="2" stroke-dasharray="5.06 5.06"/>
<path fill-rule="evenodd" clip-rule="evenodd" d="M688.495 478C626.487 478.318 567.039 453.297 523.922 408.733L518.897 403.54L525.482 403.648C526.035 403.657 526.49 403.217 526.499 402.665C526.508 402.113 526.068 401.658 525.515 401.649L516.517 401.5C515.964 401.491 515.509 401.931 515.5 402.484L515.352 411.482C515.343 412.034 515.783 412.49 516.335 412.499C516.887 412.508 517.342 412.067 517.351 411.515L517.46 404.93L522.485 410.123C565.981 455.08 625.952 480.321 688.505 480L1300 479.102L1300 477.102L688.499 478L688.5 479.021L688.495 478Z" fill="url(#paint0_linear_6_452)"/>
<path fill-rule="evenodd" clip-rule="evenodd" d="M931.871 220L931.132 231.25C927.443 287.417 907.312 341.258 873.245 386.066L863.745 398.562L870.271 397.673C870.818 397.599 871.322 397.982 871.397 398.529C871.471 399.077 871.088 399.581 870.541 399.655L861.623 400.87C861.076 400.944 860.572 400.561 860.497 400.014L859.283 391.096C859.208 390.549 859.591 390.045 860.139 389.97C860.686 389.896 861.19 390.279 861.264 390.826L862.153 397.352L871.653 384.856C905.482 340.36 925.473 286.895 929.136 231.119L930 217.969L930 31H932L932 220H931.871Z" fill="url(#paint1_linear_6_452)"/>
<path fill-rule="evenodd" clip-rule="evenodd" d="M688.497 21.0001L95 21V19L689 19.0001V19.0052C753.326 19.7457 814.459 47.1962 857.754 94.7979L866.615 104.541L866.927 97.9628C866.953 97.4111 867.422 96.9851 867.973 97.0113C868.525 97.0374 868.951 97.5058 868.925 98.0575L868.499 107.047C868.473 107.599 868.004 108.025 867.453 107.999L858.463 107.573C857.911 107.547 857.485 107.078 857.511 106.527C857.537 105.975 858.006 105.549 858.557 105.575L865.136 105.887L856.274 96.1436C813.246 48.8344 752.444 21.6028 688.497 21.0001Z" fill="url(#paint2_linear_6_452)"/>
<path d="M622.16 249.48C622.027 249.853 621.84 250.373 621.6 251.04C621.387 251.707 621.12 252.427 620.8 253.2C620.507 253.973 620.187 254.773 619.84 255.6C619.52 256.4 619.2 257.133 618.88 257.8C618.587 258.467 618.307 259.013 618.04 259.44C617.773 259.84 617.56 260.04 617.4 260.04C617.24 260.04 617.107 259.933 617 259.72C616.92 259.48 616.853 259.187 616.8 258.84C616.773 258.493 616.76 258.12 616.76 257.72C616.76 257.293 616.76 256.893 616.76 256.52C616.76 255.773 616.787 255.067 616.84 254.4C616.893 253.707 616.973 253.013 617.08 252.32C617.213 251.6 617.373 250.84 617.56 250.04C617.747 249.24 617.96 248.333 618.2 247.32C618.44 246.333 618.773 245.24 619.2 244.04C619.653 242.84 620.147 241.6 620.68 240.32C621.213 239.04 621.76 237.8 622.32 236.6C622.88 235.373 623.4 234.253 623.88 233.24C624.387 232.227 624.813 231.387 625.16 230.72C625.507 230.053 625.747 229.627 625.88 229.44C626.6 229.28 627.32 229.333 628.04 229.6C628.76 229.867 629.307 230.52 629.68 231.56C629.253 232.467 628.72 233.507 628.08 234.68C627.467 235.853 626.853 237.053 626.24 238.28C625.627 239.48 625.067 240.653 624.56 241.8C624.053 242.947 623.693 243.96 623.48 244.84C624.093 244.84 624.8 244.84 625.6 244.84C626.427 244.84 627.267 244.853 628.12 244.88C629 244.88 629.867 244.907 630.72 244.96C631.6 244.987 632.413 245.027 633.16 245.08C633.373 244.04 633.64 242.867 633.96 241.56C634.28 240.253 634.653 238.907 635.08 237.52C635.507 236.133 635.96 234.747 636.44 233.36C636.947 231.973 637.48 230.667 638.04 229.44C638.787 229.227 639.52 229.227 640.24 229.44C640.987 229.653 641.613 230.187 642.12 231.04C641.827 231.867 641.453 232.893 641 234.12C640.547 235.347 640.093 236.64 639.64 238C639.187 239.36 638.773 240.707 638.4 242.04C638.027 243.373 637.76 244.547 637.6 245.56C637.627 245.56 637.8 245.6 638.12 245.68C638.44 245.76 638.827 245.88 639.28 246.04C639.76 246.2 640.267 246.387 640.8 246.6C641.36 246.787 641.867 247 642.32 247.24C642.773 247.453 643.147 247.68 643.44 247.92C643.76 248.133 643.92 248.347 643.92 248.56C643.92 248.64 643.88 248.733 643.8 248.84C643.747 248.947 643.573 249.053 643.28 249.16C643.013 249.24 642.6 249.307 642.04 249.36C641.507 249.413 640.747 249.44 639.76 249.44H637.96C637.667 249.44 637.36 249.427 637.04 249.4C636.96 249.827 636.84 250.413 636.68 251.16C636.52 251.88 636.333 252.667 636.12 253.52C635.907 254.347 635.667 255.187 635.4 256.04C635.16 256.893 634.907 257.667 634.64 258.36C634.4 259.053 634.16 259.613 633.92 260.04C633.68 260.493 633.453 260.72 633.24 260.72C632.947 260.72 632.707 260.453 632.52 259.92C632.36 259.387 632.253 258.667 632.2 257.76C632.2 256.507 632.213 255.333 632.24 254.24C632.267 253.307 632.307 252.373 632.36 251.44C632.413 250.48 632.48 249.76 632.56 249.28C631.84 249.253 631 249.24 630.04 249.24C629.08 249.213 628.107 249.213 627.12 249.24C626.133 249.24 625.187 249.267 624.28 249.32C623.4 249.347 622.693 249.4 622.16 249.48ZM654.896 260.28C654.336 260.28 653.696 260.227 652.976 260.12C652.256 260.04 651.536 259.88 650.816 259.64C650.096 259.373 649.429 259 648.816 258.52C648.202 258.013 647.722 257.36 647.376 256.56H646.856C646.536 256.373 646.269 256.133 646.056 255.84C645.869 255.52 645.762 255.187 645.736 254.84C645.709 254.467 645.776 254.107 645.936 253.76C646.096 253.413 646.402 253.107 646.856 252.84H647.376C647.856 251.587 648.602 250.493 649.616 249.56C650.629 248.6 651.776 247.813 653.056 247.2C654.336 246.587 655.709 246.133 657.176 245.84C658.642 245.52 660.082 245.373 661.496 245.4C661.922 245.4 662.429 245.44 663.016 245.52C663.629 245.6 664.202 245.747 664.736 245.96C665.269 246.173 665.722 246.493 666.096 246.92C666.469 247.32 666.656 247.867 666.656 248.56C666.656 249.36 666.376 250.093 665.816 250.76C665.256 251.427 664.536 252.04 663.656 252.6C662.776 253.16 661.776 253.667 660.656 254.12C659.536 254.573 658.416 254.96 657.296 255.28C656.202 255.573 655.149 255.813 654.136 256C653.149 256.187 652.322 256.293 651.656 256.32C651.976 256.64 652.469 256.907 653.136 257.12C653.829 257.307 654.576 257.453 655.376 257.56C656.176 257.64 657.002 257.707 657.856 257.76C658.709 257.787 659.482 257.813 660.176 257.84C660.869 257.867 661.429 257.907 661.856 257.96C662.309 257.987 662.536 258.053 662.536 258.16C662.536 258.293 662.349 258.48 661.976 258.72C661.602 258.96 661.082 259.2 660.416 259.44C659.749 259.653 658.949 259.84 658.016 260C657.082 260.187 656.042 260.28 654.896 260.28ZM652.056 252.6C653.842 252.333 655.536 251.933 657.136 251.4C658.762 250.84 660.216 250.16 661.496 249.36C660.429 249.36 659.376 249.453 658.336 249.64C657.322 249.827 656.376 250.067 655.496 250.36C654.642 250.653 653.909 251 653.296 251.4C652.709 251.8 652.296 252.2 652.056 252.6ZM694.233 256.88C694.633 257.387 694.993 257.787 695.313 258.08C695.66 258.373 695.953 258.6 696.193 258.76C696.433 258.92 696.62 259.053 696.753 259.16C696.913 259.24 696.993 259.333 696.993 259.44C696.993 259.573 696.913 259.693 696.753 259.8C696.593 259.88 696.393 259.92 696.153 259.92C695.86 259.92 695.433 259.853 694.873 259.72C694.34 259.587 693.74 259.333 693.073 258.96C692.433 258.587 691.78 258.053 691.113 257.36C690.447 256.667 689.833 255.76 689.273 254.64C688.553 255.227 687.567 255.853 686.313 256.52C685.06 257.187 683.713 257.8 682.273 258.36C680.86 258.92 679.447 259.387 678.033 259.76C676.62 260.133 675.407 260.32 674.393 260.32C673.833 260.32 673.26 260.267 672.673 260.16C672.113 260.053 671.593 259.867 671.113 259.6C670.633 259.307 670.233 258.907 669.913 258.4C669.62 257.893 669.473 257.24 669.473 256.44C669.473 255.507 669.927 254.507 670.833 253.44C671.74 252.347 672.887 251.347 674.273 250.44C675.66 249.507 677.167 248.747 678.793 248.16C680.42 247.547 681.953 247.24 683.393 247.24C683.847 247.24 684.247 247.253 684.593 247.28C684.967 247.28 685.3 247.333 685.593 247.44C686.1 247.76 686.42 248.133 686.553 248.56C686.687 248.96 686.7 249.373 686.593 249.8C686.487 250.2 686.273 250.587 685.953 250.96C685.66 251.307 685.313 251.587 684.913 251.8H684.433C684.3 251.8 684.127 251.8 683.913 251.8C683.727 251.773 683.513 251.76 683.273 251.76C682.447 251.76 681.593 251.893 680.713 252.16C679.833 252.427 678.993 252.773 678.193 253.2C677.393 253.6 676.66 254.04 675.993 254.52C675.327 255 674.793 255.453 674.393 255.88C675.487 255.88 676.553 255.747 677.593 255.48C678.66 255.213 679.687 254.88 680.673 254.48C681.66 254.08 682.593 253.64 683.473 253.16C684.38 252.68 685.207 252.24 685.953 251.84C686.727 251.44 687.42 251.107 688.033 250.84C688.673 250.573 689.207 250.44 689.633 250.44C690.3 250.44 690.807 250.64 691.153 251.04C691.527 251.44 691.847 251.96 692.113 252.6C692.38 253.213 692.66 253.907 692.953 254.68C693.247 255.427 693.673 256.16 694.233 256.88ZM717.336 229.92C718.376 229.92 719.176 230.24 719.736 230.88C720.296 231.52 720.576 232.307 720.576 233.24C720.576 234.253 720.296 235.427 719.736 236.76C719.176 238.093 718.429 239.493 717.496 240.96C716.589 242.4 715.549 243.867 714.376 245.36C713.229 246.827 712.056 248.213 710.856 249.52C709.682 250.8 708.536 251.96 707.416 253C706.322 254.04 705.362 254.84 704.536 255.4C704.509 255.507 704.482 255.613 704.456 255.72C704.456 255.827 704.456 255.96 704.456 256.12C704.456 256.867 704.576 257.467 704.816 257.92C705.056 258.373 705.322 258.747 705.616 259.04C705.936 259.307 706.216 259.533 706.456 259.72C706.696 259.907 706.816 260.12 706.816 260.36C706.816 260.52 706.749 260.653 706.616 260.76C706.482 260.893 706.296 260.96 706.056 260.96C705.949 260.96 705.722 260.947 705.376 260.92C705.056 260.893 704.682 260.76 704.256 260.52C703.856 260.307 703.429 259.947 702.976 259.44C702.522 258.933 702.109 258.2 701.736 257.24C701.282 257.533 700.816 257.813 700.336 258.08C699.856 258.347 699.362 258.587 698.856 258.8C697.496 258.8 696.669 258.453 696.376 257.76C696.056 257.067 696.269 256.213 697.016 255.2C697.469 254.96 697.949 254.68 698.456 254.36C698.909 254.067 699.429 253.733 700.016 253.36C700.629 252.987 701.282 252.547 701.976 252.04C702.269 250.387 702.736 248.693 703.376 246.96C704.016 245.2 704.749 243.507 705.576 241.88C706.429 240.227 707.349 238.68 708.336 237.24C709.322 235.773 710.336 234.507 711.376 233.44C712.416 232.347 713.442 231.493 714.456 230.88C715.469 230.24 716.429 229.92 717.336 229.92ZM716.096 234.68C714.869 235.8 713.749 236.987 712.736 238.24C711.722 239.493 710.802 240.733 709.976 241.96C709.149 243.187 708.416 244.387 707.776 245.56C707.162 246.707 706.629 247.733 706.176 248.64C707.136 247.76 708.109 246.787 709.096 245.72C710.109 244.653 711.069 243.52 711.976 242.32C712.882 241.12 713.696 239.88 714.416 238.6C715.136 237.293 715.696 235.987 716.096 234.68ZM718.364 253.4C718.124 253.293 717.911 253.093 717.724 252.8C717.538 252.48 717.391 252.133 717.284 251.76C717.204 251.36 717.164 250.947 717.164 250.52C717.191 250.093 717.284 249.68 717.444 249.28C718.031 249.12 718.671 248.973 719.364 248.84C719.951 248.707 720.618 248.587 721.364 248.48C722.138 248.373 722.951 248.293 723.804 248.24C724.338 246.72 725.031 245.067 725.884 243.28C726.738 241.493 727.618 239.76 728.524 238.08C729.458 236.373 730.364 234.8 731.244 233.36C732.124 231.893 732.871 230.72 733.484 229.84C733.831 229.813 734.178 229.827 734.524 229.88C734.898 229.933 735.244 230.053 735.564 230.24C735.884 230.427 736.164 230.693 736.404 231.04C736.671 231.36 736.858 231.787 736.964 232.32C736.698 232.693 736.338 233.24 735.884 233.96C735.431 234.653 734.924 235.467 734.364 236.4C733.831 237.333 733.258 238.333 732.644 239.4C732.031 240.467 731.444 241.533 730.884 242.6C730.351 243.64 729.844 244.653 729.364 245.64C728.911 246.6 728.564 247.453 728.324 248.2C729.658 248.2 730.858 248.32 731.924 248.56C732.991 248.8 733.898 249.093 734.644 249.44C735.391 249.787 735.964 250.133 736.364 250.48C736.764 250.827 736.964 251.093 736.964 251.28C736.964 251.573 736.578 251.813 735.804 252C735.058 252.187 734.151 252.333 733.084 252.44C732.018 252.52 730.898 252.573 729.724 252.6C728.551 252.627 727.564 252.627 726.764 252.6C726.524 253.24 726.324 253.867 726.164 254.48C726.004 255.013 725.858 255.573 725.724 256.16C725.618 256.747 725.564 257.267 725.564 257.72C725.564 258.2 725.604 258.6 725.684 258.92C725.791 259.213 725.884 259.467 725.964 259.68C726.071 259.867 726.164 260 726.244 260.08C726.351 260.187 726.404 260.28 726.404 260.36C726.404 260.573 726.271 260.68 726.004 260.68C725.844 260.68 725.578 260.627 725.204 260.52C724.831 260.413 724.458 260.187 724.084 259.84C723.738 259.493 723.418 258.987 723.124 258.32C722.858 257.653 722.724 256.76 722.724 255.64C722.724 255.16 722.724 254.693 722.724 254.24C722.751 253.76 722.791 253.24 722.844 252.68C721.591 252.813 720.538 252.96 719.684 253.12C719.204 253.227 718.764 253.32 718.364 253.4ZM754.854 251.84C754.187 251.84 753.494 252.08 752.774 252.56C752.054 253.04 751.321 253.64 750.574 254.36C749.827 255.08 749.067 255.853 748.294 256.68C747.521 257.507 746.761 258.28 746.014 259C745.267 259.72 744.534 260.32 743.814 260.8C743.094 261.28 742.401 261.52 741.734 261.52C740.987 261.52 740.347 261.173 739.814 260.48C739.307 259.787 739.054 258.92 739.054 257.88C739.054 256.147 739.254 254.333 739.654 252.44C740.081 250.52 740.614 248.613 741.254 246.72C741.921 244.827 742.667 242.987 743.494 241.2C744.321 239.413 745.147 237.773 745.974 236.28C746.801 234.787 747.587 233.493 748.334 232.4C749.081 231.307 749.721 230.493 750.254 229.96C750.654 229.853 751.054 229.787 751.454 229.76C751.881 229.707 752.254 229.773 752.574 229.96C752.921 230.12 753.201 230.427 753.414 230.88C753.627 231.307 753.734 231.92 753.734 232.72C753.521 232.907 753.147 233.4 752.614 234.2C752.081 235 751.454 236 750.734 237.2C750.014 238.4 749.254 239.747 748.454 241.24C747.681 242.733 746.947 244.28 746.254 245.88C745.587 247.453 745.001 249.04 744.494 250.64C744.014 252.213 743.707 253.68 743.574 255.04C745.281 253.387 746.721 252.107 747.894 251.2C749.067 250.267 750.054 249.587 750.854 249.16C751.681 248.707 752.361 248.44 752.894 248.36C753.454 248.253 753.974 248.2 754.454 248.2C755.467 248.2 756.334 248.427 757.054 248.88C757.774 249.333 758.361 249.92 758.814 250.64C759.294 251.333 759.641 252.12 759.854 253C760.067 253.853 760.174 254.693 760.174 255.52C759.961 257.413 759.667 258.72 759.294 259.44C758.947 260.16 758.694 260.52 758.534 260.52C758.267 260.52 758.107 260.08 758.054 259.2C758.027 258.293 757.907 257.08 757.694 255.56C757.694 255.56 757.641 255.373 757.534 255C757.427 254.6 757.254 254.173 757.014 253.72C756.801 253.24 756.507 252.813 756.134 252.44C755.787 252.04 755.361 251.84 754.854 251.84Z" fill="#F1F1F1"/>
<path d="M1328.67 468.88C1328.67 469.7 1328.55 470.65 1328.31 471.73C1328.07 472.81 1327.77 473.92 1327.41 475.06C1327.05 476.18 1326.65 477.28 1326.21 478.36C1325.79 479.42 1325.39 480.33 1325.01 481.09C1324.49 482.13 1324.04 482.97 1323.66 483.61C1323.3 484.25 1323.04 484.57 1322.88 484.57C1322.8 484.57 1322.76 484.44 1322.76 484.18C1322.78 483.92 1322.82 483.62 1322.88 483.28C1322.94 482.92 1323.01 482.56 1323.09 482.2C1323.17 481.84 1323.24 481.55 1323.3 481.33C1323.6 480.39 1323.89 479.41 1324.17 478.39C1324.47 477.35 1324.73 476.33 1324.95 475.33C1325.17 474.31 1325.35 473.32 1325.49 472.36C1325.63 471.4 1325.7 470.53 1325.7 469.75C1325.7 469.09 1325.66 468.55 1325.58 468.13C1325.52 467.71 1325.44 467.37 1325.34 467.11C1325.24 466.85 1325.12 466.66 1324.98 466.54C1324.86 466.4 1324.74 466.3 1324.62 466.24C1324.3 466.34 1323.88 466.61 1323.36 467.05C1322.86 467.47 1322.33 467.96 1321.77 468.52C1321.21 469.08 1320.67 469.65 1320.15 470.23C1319.63 470.81 1319.21 471.3 1318.89 471.7C1318.69 471.94 1318.47 472.23 1318.23 472.57C1318.01 472.89 1317.75 473.2 1317.45 473.5C1317.17 473.8 1316.87 474.06 1316.55 474.28C1316.23 474.48 1315.88 474.58 1315.5 474.58C1314.96 474.58 1314.59 474.43 1314.39 474.13C1314.21 473.83 1314.12 473.45 1314.12 472.99C1314.12 472.53 1314.17 471.97 1314.27 471.31C1314.39 470.65 1314.52 469.96 1314.66 469.24C1314.8 468.5 1314.93 467.78 1315.05 467.08C1315.19 466.36 1315.28 465.71 1315.32 465.13C1314.44 465.79 1313.61 466.64 1312.83 467.68C1312.05 468.72 1311.32 469.83 1310.64 471.01C1309.96 472.19 1309.35 473.39 1308.81 474.61C1308.29 475.81 1307.85 476.93 1307.49 477.97C1307.11 479.03 1306.8 480.01 1306.56 480.91C1306.32 481.81 1306.13 482.59 1305.99 483.25C1305.85 483.89 1305.75 484.4 1305.69 484.78C1305.65 485.16 1305.63 485.37 1305.63 485.41C1305.45 485.81 1305.2 486.16 1304.88 486.46C1304.58 486.76 1304.27 486.93 1303.95 486.97C1303.63 487.03 1303.33 486.92 1303.05 486.64C1302.79 486.38 1302.6 485.89 1302.48 485.17C1302.48 484.35 1302.65 483.25 1302.99 481.87C1303.33 480.47 1303.82 478.83 1304.46 476.95C1304.88 475.73 1305.37 474.49 1305.93 473.23C1306.51 471.97 1307.13 470.75 1307.79 469.57C1308.45 468.39 1309.15 467.28 1309.89 466.24C1310.63 465.2 1311.37 464.3 1312.11 463.54C1312.85 462.76 1313.58 462.15 1314.3 461.71C1315.04 461.25 1315.74 461.02 1316.4 461.02C1316.96 461.02 1317.39 461.17 1317.69 461.47C1317.99 461.75 1318.21 462.09 1318.35 462.49C1318.49 462.87 1318.57 463.26 1318.59 463.66C1318.63 464.06 1318.65 464.36 1318.65 464.56C1318.65 464.8 1318.61 465.19 1318.53 465.73C1318.47 466.25 1318.39 466.8 1318.29 467.38C1318.71 466.94 1319.16 466.47 1319.64 465.97C1320.12 465.45 1320.63 464.98 1321.17 464.56C1321.71 464.12 1322.28 463.76 1322.88 463.48C1323.5 463.2 1324.15 463.06 1324.83 463.06C1325.65 463.06 1326.3 463.26 1326.78 463.66C1327.28 464.04 1327.66 464.52 1327.92 465.1C1328.2 465.68 1328.38 466.31 1328.46 466.99C1328.56 467.67 1328.63 468.3 1328.67 468.88ZM1333.64 481.99C1333.24 482.51 1332.87 482.98 1332.53 483.4C1332.21 483.82 1331.91 484.03 1331.63 484.03C1331.43 484.03 1331.25 483.94 1331.09 483.76C1330.95 483.56 1330.83 483.33 1330.73 483.07C1330.65 482.79 1330.58 482.49 1330.52 482.17C1330.48 481.85 1330.46 481.55 1330.46 481.27C1330.52 480.93 1330.64 480.46 1330.82 479.86C1331 479.24 1331.21 478.6 1331.45 477.94C1331.69 477.28 1331.94 476.66 1332.2 476.08C1332.46 475.48 1332.7 475.03 1332.92 474.73C1333.44 474.79 1333.93 474.98 1334.39 475.3C1334.87 475.6 1335.25 475.97 1335.53 476.41C1335.11 477.35 1334.75 478.25 1334.45 479.11C1334.15 479.95 1333.88 480.91 1333.64 481.99ZM1336.28 469.75C1336.4 469.75 1336.55 469.76 1336.73 469.78C1336.91 469.8 1337.08 469.86 1337.24 469.96C1337.42 470.06 1337.57 470.23 1337.69 470.47C1337.81 470.71 1337.87 471.04 1337.87 471.46C1337.87 471.8 1337.77 472.1 1337.57 472.36C1337.37 472.6 1337.13 472.8 1336.85 472.96C1336.59 473.12 1336.31 473.25 1336.01 473.35C1335.73 473.43 1335.5 473.47 1335.32 473.47C1334.96 473.47 1334.68 473.41 1334.48 473.29C1334.3 473.15 1334.16 473 1334.06 472.84C1333.98 472.66 1333.93 472.49 1333.91 472.33C1333.91 472.15 1333.91 472.01 1333.91 471.91C1333.91 471.65 1333.98 471.39 1334.12 471.13C1334.28 470.87 1334.47 470.64 1334.69 470.44C1334.91 470.22 1335.16 470.05 1335.44 469.93C1335.72 469.81 1336 469.75 1336.28 469.75ZM1338.91 474.85C1339.21 474.71 1339.52 474.63 1339.84 474.61C1340.16 474.59 1340.46 474.65 1340.74 474.79C1341.02 474.91 1341.26 475.1 1341.46 475.36C1341.68 475.62 1341.82 475.94 1341.88 476.32C1341.72 476.56 1341.57 476.83 1341.43 477.13C1341.29 477.39 1341.15 477.71 1341.01 478.09C1340.87 478.45 1340.73 478.86 1340.59 479.32C1340.99 478.96 1341.51 478.5 1342.15 477.94C1342.81 477.36 1343.52 476.81 1344.28 476.29C1345.06 475.75 1345.86 475.29 1346.68 474.91C1347.5 474.51 1348.28 474.31 1349.02 474.31C1349.76 474.31 1350.43 474.42 1351.03 474.64C1351.65 474.84 1352.18 475.17 1352.62 475.63C1353.06 476.07 1353.4 476.65 1353.64 477.37C1353.88 478.07 1354 478.93 1354 479.95C1354 480.85 1353.92 481.62 1353.76 482.26C1353.6 482.9 1353.42 483.43 1353.22 483.85C1353.04 484.25 1352.86 484.55 1352.68 484.75C1352.52 484.95 1352.44 485.05 1352.44 485.05C1352.3 485.05 1352.15 484.73 1351.99 484.09C1351.83 483.47 1351.75 482.62 1351.75 481.54C1351.75 480.92 1351.65 480.36 1351.45 479.86C1351.27 479.36 1351.04 478.94 1350.76 478.6C1350.48 478.24 1350.19 477.97 1349.89 477.79C1349.59 477.59 1349.33 477.49 1349.11 477.49C1348.71 477.49 1348.23 477.65 1347.67 477.97C1347.13 478.29 1346.55 478.7 1345.93 479.2C1345.31 479.68 1344.67 480.2 1344.01 480.76C1343.37 481.32 1342.74 481.85 1342.12 482.35C1341.52 482.83 1340.96 483.23 1340.44 483.55C1339.92 483.87 1339.49 484.03 1339.15 484.03C1338.81 484.03 1338.51 483.95 1338.25 483.79C1337.99 483.63 1337.76 483.43 1337.56 483.19C1337.36 482.95 1337.21 482.68 1337.11 482.38C1337.01 482.08 1336.96 481.79 1336.96 481.51C1336.96 480.89 1337.06 480.17 1337.26 479.35C1337.48 478.51 1337.72 477.74 1337.98 477.04C1338.24 476.34 1338.46 475.77 1338.64 475.33C1338.84 474.89 1338.93 474.73 1338.91 474.85ZM1379.12 462.67C1378.82 463.01 1378.38 463.63 1377.8 464.53C1377.24 465.41 1376.63 466.45 1375.97 467.65C1375.33 468.85 1374.69 470.14 1374.05 471.52C1373.41 472.88 1372.87 474.21 1372.43 475.51L1373.21 475.87C1373.37 476.13 1373.43 476.41 1373.39 476.71C1373.37 476.99 1373.28 477.26 1373.12 477.52C1372.96 477.78 1372.75 478.01 1372.49 478.21C1372.25 478.39 1371.99 478.51 1371.71 478.57L1371.41 478.48C1371.35 478.62 1371.24 478.9 1371.08 479.32C1370.94 479.72 1370.76 480.18 1370.54 480.7C1370.32 481.22 1370.09 481.77 1369.85 482.35C1369.61 482.91 1369.38 483.43 1369.16 483.91C1368.94 484.37 1368.73 484.75 1368.53 485.05C1368.35 485.37 1368.21 485.53 1368.11 485.53C1367.97 485.53 1367.86 485.37 1367.78 485.05C1367.7 484.75 1367.64 484.36 1367.6 483.88C1367.6 483.4 1367.61 482.86 1367.63 482.26C1367.67 481.66 1367.72 481.07 1367.78 480.49C1367.84 479.91 1367.91 479.38 1367.99 478.9C1368.07 478.42 1368.16 478.04 1368.26 477.76C1368.1 477.74 1367.95 477.73 1367.81 477.73C1367.69 477.71 1367.54 477.7 1367.36 477.7C1366.88 477.7 1366.33 477.75 1365.71 477.85C1365.11 477.95 1364.49 478.08 1363.85 478.24C1363.21 478.38 1362.59 478.56 1361.99 478.78C1361.39 478.98 1360.85 479.19 1360.37 479.41C1359.91 479.63 1359.53 479.86 1359.23 480.1C1358.95 480.32 1358.81 480.52 1358.81 480.7C1358.81 480.86 1359 480.99 1359.38 481.09C1359.76 481.19 1360.24 481.27 1360.82 481.33C1361.42 481.39 1362.07 481.43 1362.77 481.45C1363.49 481.47 1364.17 481.48 1364.81 481.48C1365.53 481.48 1366.13 481.52 1366.61 481.6C1367.09 481.68 1367.33 481.81 1367.33 481.99C1367.33 482.15 1367.19 482.32 1366.91 482.5C1366.65 482.66 1366.3 482.82 1365.86 482.98C1365.44 483.14 1364.95 483.29 1364.39 483.43C1363.85 483.57 1363.3 483.7 1362.74 483.82C1362.18 483.92 1361.64 484 1361.12 484.06C1360.6 484.12 1360.15 484.15 1359.77 484.15C1359.19 484.15 1358.64 484.08 1358.12 483.94C1357.62 483.78 1357.17 483.56 1356.77 483.28C1356.37 482.98 1356.05 482.63 1355.81 482.23C1355.59 481.81 1355.48 481.33 1355.48 480.79C1355.48 480.01 1355.7 479.31 1356.14 478.69C1356.6 478.07 1357.18 477.53 1357.88 477.07C1358.6 476.59 1359.4 476.19 1360.28 475.87C1361.18 475.53 1362.07 475.26 1362.95 475.06C1363.85 474.84 1364.7 474.68 1365.5 474.58C1366.3 474.48 1366.97 474.43 1367.51 474.43C1367.83 474.43 1368.13 474.45 1368.41 474.49C1368.71 474.51 1369 474.54 1369.28 474.58C1369.6 473.6 1369.98 472.6 1370.42 471.58C1370.88 470.54 1371.36 469.53 1371.86 468.55C1372.36 467.57 1372.87 466.63 1373.39 465.73C1373.91 464.83 1374.39 464.03 1374.83 463.33C1375.27 462.61 1375.66 462.02 1376 461.56C1376.34 461.08 1376.58 460.77 1376.72 460.63C1377.3 460.59 1377.83 460.73 1378.31 461.05C1378.81 461.37 1379.08 461.91 1379.12 462.67Z" fill="#F1F1F1"/>
<path d="M18.99 11.4C19.61 11.68 20.28 12 21 12.36C21.74 12.7 22.42 13.13 23.04 13.65C23.66 14.15 24.18 14.75 24.6 15.45C25.02 16.13 25.23 16.95 25.23 17.91C25.23 18.91 24.99 19.77 24.51 20.49C24.03 21.21 23.4 21.82 22.62 22.32C21.84 22.8 20.95 23.18 19.95 23.46C18.97 23.74 17.97 23.96 16.95 24.12C15.95 24.28 14.98 24.38 14.04 24.42C13.1 24.48 12.28 24.51 11.58 24.51C10.32 24.53 9.46 24.48 9 24.36C8.56 24.26 8.39 24.13 8.49 23.97C8.59 23.81 8.91 23.63 9.45 23.43C10.01 23.21 10.66 23.01 11.4 22.83C11.88 22.71 12.47 22.57 13.17 22.41C13.89 22.23 14.64 22.03 15.42 21.81C16.2 21.59 16.98 21.35 17.76 21.09C18.56 20.81 19.27 20.51 19.89 20.19C20.51 19.87 21.01 19.52 21.39 19.14C21.79 18.74 21.99 18.31 21.99 17.85C21.99 17.43 21.81 16.99 21.45 16.53C21.11 16.07 20.55 15.63 19.77 15.21C18.99 14.79 18.17 14.42 17.31 14.1C16.45 13.76 15.6 13.47 14.76 13.23C13.92 12.99 13.11 12.79 12.33 12.63C11.57 12.47 10.89 12.34 10.29 12.24C9.99 12.76 9.63 13.4 9.21 14.16C8.79 14.92 8.35 15.73 7.89 16.59C7.43 17.45 6.96 18.33 6.48 19.23C6.02 20.11 5.58 20.95 5.16 21.75C4.74 22.53 4.36 23.23 4.02 23.85C3.68 24.47 3.41 24.94 3.21 25.26C2.81 25.9 2.5 26.35 2.28 26.61C2.08 26.89 1.91 27.01 1.77 26.97C1.65 26.95 1.56 26.86 1.5 26.7C1.46 26.54 1.43 26.34 1.41 26.1C1.41 25.86 1.42 25.6 1.44 25.32C1.48 25.06 1.52 24.79 1.56 24.51C2.16 22.65 2.77 20.85 3.39 19.11C4.03 17.37 4.76 15.68 5.58 14.04C6.42 12.38 7.38 10.76 8.46 9.18C9.54 7.58 10.83 6 12.33 4.44C11.87 4.34 11.43 4.27 11.01 4.23C10.59 4.19 10.21 4.15 9.87 4.11C9.49 4.07 9.13 4.05 8.79 4.05C8.67 3.93 8.55 3.75 8.43 3.51C8.33 3.25 8.26 2.97 8.22 2.67C8.2 2.37 8.24 2.07 8.34 1.77C8.46 1.45 8.68 1.16 9 0.899999C9.5 0.879999 10.05 0.889999 10.65 0.929998C11.17 0.969999 11.76 1.05 12.42 1.17C13.1 1.27 13.82 1.43 14.58 1.65C14.72 1.49 14.82 1.38 14.88 1.32C14.96 1.24 15.02 1.18 15.06 1.14C15.1 1.1 15.13 1.07 15.15 1.05C15.19 1.01 15.24 0.959999 15.3 0.899999C15.48 0.899999 15.68 0.929999 15.9 0.989999C16.14 1.05 16.37 1.16 16.59 1.32C16.81 1.46 17.02 1.66 17.22 1.92C17.42 2.18 17.59 2.52 17.73 2.94C18.15 3.16 18.58 3.41 19.02 3.69C19.46 3.97 19.86 4.3 20.22 4.68C20.58 5.06 20.87 5.48 21.09 5.94C21.33 6.4 21.45 6.92 21.45 7.5C21.45 7.96 21.38 8.4 21.24 8.82C21.1 9.24 20.91 9.62 20.67 9.96C20.43 10.3 20.16 10.6 19.86 10.86C19.58 11.1 19.29 11.28 18.99 11.4ZM15.69 5.55C15.23 6.01 14.69 6.59 14.07 7.29C13.47 7.97 12.89 8.69 12.33 9.45C12.69 9.45 13.2 9.45 13.86 9.45C14.52 9.43 15.18 9.38 15.84 9.3C16.5 9.2 17.07 9.05 17.55 8.85C18.03 8.65 18.27 8.35 18.27 7.95C18.27 7.49 18.06 7.04 17.64 6.6C17.24 6.16 16.59 5.81 15.69 5.55ZM27.0188 20.22C27.0188 19.76 27.1188 19.43 27.3188 19.23C27.5388 19.03 27.7888 18.92 28.0688 18.9C28.0888 18.4 28.4088 17.88 29.0288 17.34C29.6488 16.78 30.4388 16.28 31.3988 15.84C32.3588 15.38 33.4088 15.01 34.5488 14.73C35.7088 14.45 36.8288 14.32 37.9088 14.34C38.4288 14.34 39.0288 14.41 39.7088 14.55C40.3888 14.69 41.0288 14.92 41.6288 15.24C42.2288 15.54 42.7388 15.96 43.1588 16.5C43.5788 17.04 43.7888 17.71 43.7888 18.51C43.7888 19.47 43.4988 20.31 42.9188 21.03C42.3388 21.73 41.5888 22.31 40.6688 22.77C39.7688 23.23 38.7588 23.57 37.6388 23.79C36.5188 24.01 35.4188 24.12 34.3388 24.12C33.5588 24.12 32.7388 24.06 31.8788 23.94C31.0188 23.8 30.2288 23.58 29.5088 23.28C28.7888 22.96 28.1888 22.55 27.7088 22.05C27.2488 21.55 27.0188 20.94 27.0188 20.22ZM31.1888 18.15C31.0888 18.19 30.9388 18.25 30.7388 18.33C30.5388 18.41 30.3188 18.5 30.0788 18.6C29.8388 18.7 29.5988 18.8 29.3588 18.9C29.1188 19 28.9088 19.08 28.7288 19.14C28.8288 19.18 28.9288 19.24 29.0288 19.32C29.1288 19.38 29.2288 19.45 29.3288 19.53C29.5288 19.91 30.0288 20.24 30.8288 20.52C31.6488 20.78 32.6688 20.91 33.8888 20.91C34.5288 20.91 35.2388 20.84 36.0188 20.7C36.7988 20.56 37.5288 20.39 38.2088 20.19C38.8888 19.97 39.4588 19.73 39.9188 19.47C40.3788 19.19 40.6088 18.93 40.6088 18.69C40.6088 18.45 40.4888 18.26 40.2488 18.12C40.0088 17.96 39.6988 17.84 39.3188 17.76C38.9588 17.66 38.5488 17.6 38.0888 17.58C37.6488 17.54 37.2188 17.52 36.7988 17.52C35.8988 17.52 34.9588 17.57 33.9788 17.67C33.0188 17.75 32.0888 17.91 31.1888 18.15ZM68.5582 2.67C68.2582 3.01 67.8182 3.63 67.2382 4.53C66.6782 5.41 66.0682 6.45 65.4082 7.65C64.7682 8.85 64.1282 10.14 63.4882 11.52C62.8482 12.88 62.3082 14.21 61.8682 15.51L62.6482 15.87C62.8082 16.13 62.8682 16.41 62.8282 16.71C62.8082 16.99 62.7182 17.26 62.5582 17.52C62.3982 17.78 62.1882 18.01 61.9282 18.21C61.6882 18.39 61.4282 18.51 61.1482 18.57L60.8482 18.48C60.7882 18.62 60.6782 18.9 60.5182 19.32C60.3782 19.72 60.1982 20.18 59.9782 20.7C59.7582 21.22 59.5282 21.77 59.2882 22.35C59.0482 22.91 58.8182 23.43 58.5982 23.91C58.3782 24.37 58.1682 24.75 57.9682 25.05C57.7882 25.37 57.6482 25.53 57.5482 25.53C57.4082 25.53 57.2982 25.37 57.2182 25.05C57.1382 24.75 57.0782 24.36 57.0382 23.88C57.0382 23.4 57.0482 22.86 57.0682 22.26C57.1082 21.66 57.1582 21.07 57.2182 20.49C57.2782 19.91 57.3482 19.38 57.4282 18.9C57.5082 18.42 57.5982 18.04 57.6982 17.76C57.5382 17.74 57.3882 17.73 57.2482 17.73C57.1282 17.71 56.9782 17.7 56.7982 17.7C56.3182 17.7 55.7682 17.75 55.1482 17.85C54.5482 17.95 53.9282 18.08 53.2882 18.24C52.6482 18.38 52.0282 18.56 51.4282 18.78C50.8282 18.98 50.2882 19.19 49.8082 19.41C49.3482 19.63 48.9682 19.86 48.6682 20.1C48.3882 20.32 48.2482 20.52 48.2482 20.7C48.2482 20.86 48.4382 20.99 48.8182 21.09C49.1982 21.19 49.6782 21.27 50.2582 21.33C50.8582 21.39 51.5082 21.43 52.2082 21.45C52.9282 21.47 53.6082 21.48 54.2482 21.48C54.9682 21.48 55.5682 21.52 56.0482 21.6C56.5282 21.68 56.7682 21.81 56.7682 21.99C56.7682 22.15 56.6282 22.32 56.3482 22.5C56.0882 22.66 55.7382 22.82 55.2982 22.98C54.8782 23.14 54.3882 23.29 53.8282 23.43C53.2882 23.57 52.7382 23.7 52.1782 23.82C51.6182 23.92 51.0782 24 50.5582 24.06C50.0382 24.12 49.5882 24.15 49.2082 24.15C48.6282 24.15 48.0782 24.08 47.5582 23.94C47.0582 23.78 46.6082 23.56 46.2082 23.28C45.8082 22.98 45.4882 22.63 45.2482 22.23C45.0282 21.81 44.9182 21.33 44.9182 20.79C44.9182 20.01 45.1382 19.31 45.5782 18.69C46.0382 18.07 46.6182 17.53 47.3182 17.07C48.0382 16.59 48.8382 16.19 49.7182 15.87C50.6182 15.53 51.5082 15.26 52.3882 15.06C53.2882 14.84 54.1382 14.68 54.9382 14.58C55.7382 14.48 56.4082 14.43 56.9482 14.43C57.2682 14.43 57.5682 14.45 57.8482 14.49C58.1482 14.51 58.4382 14.54 58.7182 14.58C59.0382 13.6 59.4182 12.6 59.8582 11.58C60.3182 10.54 60.7982 9.53 61.2982 8.55C61.7982 7.57 62.3082 6.63 62.8282 5.73C63.3482 4.83 63.8282 4.03 64.2682 3.33C64.7082 2.61 65.0982 2.02 65.4382 1.56C65.7782 1.08 66.0182 0.769999 66.1582 0.629999C66.7382 0.589999 67.2682 0.729999 67.7482 1.05C68.2482 1.37 68.5182 1.91 68.5582 2.67ZM79.5183 14.22C80.1783 14.22 80.6983 14.38 81.0783 14.7C81.4583 15.02 81.7383 15.41 81.9183 15.87C82.1183 16.33 82.2383 16.81 82.2783 17.31C82.3383 17.79 82.3683 18.2 82.3683 18.54C82.3683 20.58 82.0183 22.62 81.3183 24.66C80.6383 26.72 79.6383 28.62 78.3183 30.36C76.9983 32.1 75.3783 33.6 73.4583 34.86C71.5383 36.14 69.3483 37.01 66.8883 37.47C66.6683 37.51 66.3983 37.55 66.0783 37.59C65.7583 37.65 65.4483 37.69 65.1483 37.71C64.8483 37.75 64.5883 37.76 64.3683 37.74C64.1683 37.74 64.0683 37.7 64.0683 37.62C64.0683 37.48 64.1983 37.32 64.4583 37.14C64.7383 36.96 65.0983 36.75 65.5383 36.51C65.9783 36.29 66.4783 36.04 67.0383 35.76C67.5983 35.5 68.1683 35.2 68.7483 34.86C70.1883 34.04 71.5383 33.01 72.7983 31.77C74.0783 30.55 75.1883 29.21 76.1283 27.75C77.0683 26.29 77.8083 24.75 78.3483 23.13C78.8883 21.51 79.1583 19.9 79.1583 18.3C78.5983 18.92 77.9483 19.58 77.2083 20.28C76.4683 20.98 75.6883 21.63 74.8683 22.23C74.0483 22.81 73.1983 23.3 72.3183 23.7C71.4583 24.08 70.6183 24.27 69.7983 24.27C69.4983 24.27 69.1483 24.22 68.7483 24.12C68.3483 24.02 67.9583 23.83 67.5783 23.55C67.2183 23.27 66.9083 22.88 66.6483 22.38C66.3883 21.86 66.2583 21.19 66.2583 20.37C66.2583 20.09 66.2883 19.74 66.3483 19.32C66.4083 18.88 66.4783 18.43 66.5583 17.97C66.6583 17.51 66.7683 17.06 66.8883 16.62C67.0083 16.18 67.1383 15.81 67.2783 15.51C67.5783 15.21 67.8983 15 68.2383 14.88C68.5783 14.76 68.8883 14.75 69.1683 14.85C69.4683 14.93 69.7183 15.12 69.9183 15.42C70.1183 15.7 70.2283 16.1 70.2483 16.62C69.7483 17.88 69.4983 19.19 69.4983 20.55C69.4983 20.83 69.5883 20.97 69.7683 20.97C70.4283 20.97 71.0683 20.81 71.6883 20.49C72.3283 20.15 72.9383 19.73 73.5183 19.23C74.0983 18.73 74.6583 18.19 75.1983 17.61C75.7583 17.01 76.2883 16.46 76.7883 15.96C77.2883 15.46 77.7583 15.05 78.1983 14.73C78.6583 14.39 79.0983 14.22 79.5183 14.22Z" fill="#F1F1F1"/>
<defs>
<linearGradient id="paint0_linear_6_452" x1="515.352" y1="403.802" x2="529.367" y2="330.972" gradientUnits="userSpaceOnUse">
<stop stop-color="#99999D"/>
<stop offset="1" stop-color="#99999D" stop-opacity="0"/>
</linearGradient>
<linearGradient id="paint1_linear_6_452" x1="859.891" y1="397.719" x2="807.603" y2="379.03" gradientUnits="userSpaceOnUse">
<stop stop-color="#99999D"/>
<stop offset="1" stop-color="#99999D" stop-opacity="0"/>
</linearGradient>
<linearGradient id="paint2_linear_6_452" x1="869.556" y1="107.74" x2="851.236" y2="189.282" gradientUnits="userSpaceOnUse">
<stop stop-color="#99999D"/>
<stop offset="1" stop-color="#99999D" stop-opacity="0"/>
</linearGradient>
</defs>
</svg>
