<svg width="359" height="350" viewBox="0 0 359 350" fill="none" xmlns="http://www.w3.org/2000/svg">
<path d="M141.026 173.613C140.948 173.83 140.84 174.133 140.7 174.52C140.576 174.907 140.421 175.326 140.235 175.775C140.065 176.225 139.879 176.69 139.677 177.17C139.491 177.635 139.305 178.061 139.119 178.449C138.949 178.836 138.786 179.154 138.631 179.402C138.476 179.634 138.352 179.75 138.259 179.75C138.166 179.75 138.089 179.688 138.027 179.565C137.98 179.425 137.941 179.255 137.91 179.053C137.895 178.852 137.887 178.635 137.887 178.402C137.887 178.154 137.887 177.922 137.887 177.705C137.887 177.271 137.903 176.86 137.934 176.473C137.965 176.07 138.011 175.667 138.073 175.264C138.151 174.845 138.244 174.404 138.352 173.939C138.461 173.474 138.585 172.947 138.724 172.358C138.864 171.785 139.057 171.149 139.305 170.452C139.569 169.754 139.855 169.034 140.165 168.29C140.475 167.546 140.793 166.825 141.119 166.128C141.444 165.415 141.746 164.764 142.025 164.175C142.32 163.586 142.568 163.098 142.769 162.711C142.971 162.323 143.11 162.075 143.187 161.967C143.606 161.874 144.024 161.905 144.443 162.06C144.861 162.215 145.179 162.594 145.396 163.199C145.148 163.726 144.838 164.33 144.466 165.012C144.11 165.694 143.753 166.391 143.397 167.104C143.04 167.802 142.715 168.484 142.42 169.15C142.126 169.816 141.917 170.405 141.793 170.917C142.149 170.917 142.56 170.917 143.025 170.917C143.505 170.917 143.993 170.924 144.489 170.94C145.001 170.94 145.504 170.955 146 170.986C146.512 171.002 146.984 171.025 147.418 171.056C147.542 170.452 147.697 169.77 147.883 169.01C148.069 168.251 148.286 167.468 148.534 166.663C148.782 165.857 149.046 165.051 149.325 164.245C149.619 163.439 149.929 162.68 150.255 161.967C150.688 161.843 151.115 161.843 151.533 161.967C151.967 162.091 152.331 162.401 152.626 162.897C152.455 163.377 152.238 163.974 151.975 164.687C151.711 165.399 151.448 166.151 151.184 166.942C150.921 167.732 150.681 168.515 150.464 169.289C150.247 170.064 150.092 170.746 149.999 171.335C150.014 171.335 150.115 171.358 150.301 171.405C150.487 171.451 150.712 171.521 150.975 171.614C151.254 171.707 151.549 171.816 151.859 171.94C152.184 172.048 152.478 172.172 152.742 172.312C153.005 172.436 153.222 172.567 153.393 172.707C153.579 172.831 153.672 172.955 153.672 173.079C153.672 173.125 153.649 173.179 153.602 173.241C153.571 173.303 153.47 173.365 153.3 173.427C153.145 173.474 152.905 173.513 152.579 173.544C152.269 173.575 151.828 173.59 151.254 173.59H150.208C150.038 173.59 149.859 173.582 149.673 173.567C149.627 173.815 149.557 174.156 149.464 174.59C149.371 175.008 149.263 175.465 149.139 175.961C149.015 176.442 148.875 176.93 148.72 177.426C148.581 177.922 148.434 178.371 148.279 178.774C148.139 179.177 148 179.503 147.86 179.75C147.721 180.014 147.589 180.146 147.465 180.146C147.294 180.146 147.155 179.991 147.046 179.681C146.953 179.371 146.891 178.952 146.86 178.425C146.86 177.697 146.868 177.015 146.884 176.38C146.899 175.837 146.922 175.295 146.953 174.752C146.984 174.195 147.023 173.776 147.07 173.497C146.651 173.482 146.163 173.474 145.605 173.474C145.047 173.458 144.482 173.458 143.908 173.474C143.335 173.474 142.785 173.489 142.258 173.52C141.746 173.536 141.335 173.567 141.026 173.613ZM160.05 179.89C159.725 179.89 159.353 179.859 158.935 179.797C158.516 179.75 158.098 179.657 157.679 179.518C157.261 179.363 156.873 179.146 156.517 178.867C156.161 178.573 155.882 178.193 155.68 177.728H155.378C155.192 177.62 155.037 177.48 154.913 177.31C154.804 177.124 154.742 176.93 154.727 176.728C154.711 176.511 154.75 176.302 154.843 176.101C154.936 175.899 155.114 175.721 155.378 175.566H155.68C155.959 174.838 156.393 174.202 156.982 173.66C157.571 173.102 158.237 172.645 158.981 172.288C159.725 171.932 160.523 171.668 161.376 171.498C162.228 171.312 163.065 171.227 163.886 171.242C164.134 171.242 164.429 171.265 164.77 171.312C165.126 171.358 165.459 171.444 165.769 171.568C166.079 171.692 166.343 171.878 166.56 172.126C166.777 172.358 166.885 172.676 166.885 173.079C166.885 173.544 166.722 173.97 166.397 174.357C166.071 174.745 165.653 175.101 165.142 175.427C164.63 175.752 164.049 176.046 163.398 176.31C162.747 176.573 162.096 176.798 161.445 176.984C160.81 177.155 160.198 177.294 159.609 177.403C159.035 177.511 158.555 177.573 158.167 177.589C158.353 177.775 158.64 177.929 159.028 178.053C159.431 178.162 159.864 178.247 160.329 178.309C160.794 178.356 161.275 178.394 161.771 178.425C162.267 178.441 162.716 178.456 163.119 178.472C163.522 178.487 163.847 178.511 164.095 178.542C164.359 178.557 164.491 178.596 164.491 178.658C164.491 178.735 164.382 178.844 164.165 178.983C163.948 179.123 163.646 179.262 163.259 179.402C162.871 179.526 162.406 179.634 161.864 179.727C161.321 179.836 160.717 179.89 160.05 179.89ZM158.4 175.427C159.438 175.272 160.422 175.039 161.352 174.729C162.298 174.404 163.142 174.009 163.886 173.544C163.266 173.544 162.654 173.598 162.05 173.706C161.461 173.815 160.911 173.954 160.399 174.125C159.903 174.295 159.477 174.497 159.121 174.729C158.78 174.962 158.539 175.194 158.4 175.427ZM182.912 177.914C183.145 178.208 183.354 178.441 183.54 178.611C183.742 178.782 183.912 178.914 184.051 179.007C184.191 179.1 184.299 179.177 184.377 179.239C184.47 179.286 184.516 179.34 184.516 179.402C184.516 179.479 184.47 179.549 184.377 179.611C184.284 179.657 184.168 179.681 184.028 179.681C183.858 179.681 183.61 179.642 183.284 179.565C182.974 179.487 182.626 179.34 182.238 179.123C181.866 178.906 181.487 178.596 181.099 178.193C180.712 177.79 180.355 177.263 180.03 176.612C179.611 176.953 179.038 177.317 178.31 177.705C177.581 178.092 176.798 178.449 175.962 178.774C175.14 179.1 174.319 179.371 173.497 179.588C172.676 179.805 171.971 179.913 171.382 179.913C171.057 179.913 170.723 179.882 170.382 179.82C170.057 179.758 169.755 179.65 169.476 179.495C169.197 179.324 168.964 179.092 168.778 178.797C168.608 178.503 168.523 178.123 168.523 177.658C168.523 177.116 168.786 176.535 169.313 175.915C169.84 175.279 170.506 174.698 171.312 174.171C172.118 173.629 172.994 173.187 173.939 172.846C174.884 172.49 175.776 172.312 176.613 172.312C176.876 172.312 177.108 172.319 177.31 172.335C177.527 172.335 177.721 172.366 177.891 172.428C178.186 172.614 178.372 172.831 178.449 173.079C178.526 173.311 178.534 173.551 178.472 173.799C178.41 174.032 178.286 174.256 178.1 174.473C177.93 174.675 177.728 174.838 177.496 174.962H177.217C177.139 174.962 177.039 174.962 176.915 174.962C176.806 174.946 176.682 174.938 176.543 174.938C176.062 174.938 175.566 175.016 175.055 175.171C174.544 175.326 174.055 175.527 173.59 175.775C173.125 176.008 172.699 176.263 172.312 176.542C171.924 176.821 171.614 177.085 171.382 177.333C172.017 177.333 172.637 177.255 173.242 177.1C173.862 176.945 174.458 176.752 175.032 176.519C175.605 176.287 176.148 176.031 176.659 175.752C177.186 175.473 177.666 175.217 178.1 174.985C178.55 174.752 178.953 174.559 179.309 174.404C179.681 174.249 179.991 174.171 180.239 174.171C180.626 174.171 180.921 174.287 181.122 174.52C181.339 174.752 181.525 175.055 181.68 175.427C181.835 175.783 181.998 176.186 182.168 176.635C182.339 177.069 182.587 177.496 182.912 177.914ZM196.339 162.246C196.943 162.246 197.408 162.432 197.733 162.804C198.059 163.176 198.222 163.633 198.222 164.175C198.222 164.764 198.059 165.446 197.733 166.221C197.408 166.996 196.974 167.809 196.432 168.662C195.905 169.499 195.3 170.351 194.618 171.219C193.952 172.071 193.27 172.877 192.573 173.637C191.891 174.38 191.224 175.055 190.573 175.659C189.938 176.263 189.38 176.728 188.9 177.054C188.884 177.116 188.869 177.178 188.853 177.24C188.853 177.302 188.853 177.379 188.853 177.472C188.853 177.906 188.923 178.255 189.062 178.518C189.202 178.782 189.357 178.999 189.527 179.169C189.713 179.324 189.876 179.456 190.016 179.565C190.155 179.673 190.225 179.797 190.225 179.936C190.225 180.029 190.186 180.107 190.109 180.169C190.031 180.246 189.923 180.285 189.783 180.285C189.721 180.285 189.589 180.277 189.388 180.262C189.202 180.246 188.985 180.169 188.737 180.029C188.504 179.905 188.257 179.696 187.993 179.402C187.73 179.107 187.489 178.681 187.272 178.123C187.009 178.294 186.738 178.456 186.459 178.611C186.18 178.766 185.893 178.906 185.599 179.03C184.808 179.03 184.328 178.828 184.157 178.425C183.971 178.022 184.095 177.527 184.529 176.938C184.793 176.798 185.072 176.635 185.366 176.449C185.63 176.279 185.932 176.085 186.273 175.868C186.629 175.651 187.009 175.396 187.412 175.101C187.582 174.14 187.854 173.156 188.226 172.149C188.597 171.126 189.024 170.142 189.504 169.196C190 168.236 190.535 167.337 191.108 166.5C191.682 165.647 192.27 164.911 192.875 164.291C193.479 163.656 194.076 163.16 194.665 162.804C195.254 162.432 195.812 162.246 196.339 162.246ZM195.618 165.012C194.905 165.663 194.254 166.353 193.665 167.081C193.076 167.809 192.542 168.53 192.061 169.243C191.581 169.956 191.155 170.653 190.783 171.335C190.426 172.002 190.116 172.598 189.853 173.125C190.411 172.614 190.976 172.048 191.55 171.428C192.139 170.808 192.697 170.15 193.224 169.452C193.751 168.755 194.223 168.034 194.642 167.29C195.06 166.531 195.386 165.771 195.618 165.012ZM196.937 175.892C196.797 175.83 196.673 175.713 196.565 175.543C196.456 175.357 196.371 175.155 196.309 174.938C196.262 174.706 196.239 174.466 196.239 174.218C196.255 173.97 196.309 173.73 196.402 173.497C196.743 173.404 197.115 173.319 197.518 173.241C197.859 173.164 198.246 173.094 198.68 173.032C199.129 172.97 199.602 172.924 200.098 172.893C200.408 172.009 200.811 171.048 201.307 170.01C201.803 168.972 202.314 167.964 202.841 166.988C203.384 165.996 203.911 165.082 204.422 164.245C204.933 163.393 205.367 162.711 205.724 162.199C205.925 162.184 206.127 162.191 206.328 162.222C206.545 162.253 206.747 162.323 206.933 162.432C207.119 162.54 207.281 162.695 207.421 162.897C207.576 163.083 207.684 163.331 207.746 163.64C207.591 163.857 207.382 164.175 207.119 164.594C206.855 164.997 206.561 165.469 206.235 166.012C205.925 166.554 205.592 167.135 205.236 167.755C204.879 168.375 204.538 168.995 204.213 169.615C203.903 170.219 203.608 170.808 203.329 171.382C203.066 171.94 202.864 172.436 202.725 172.869C203.5 172.869 204.197 172.939 204.817 173.079C205.437 173.218 205.964 173.389 206.398 173.59C206.832 173.792 207.165 173.993 207.398 174.195C207.63 174.396 207.746 174.551 207.746 174.659C207.746 174.83 207.522 174.969 207.072 175.078C206.638 175.186 206.111 175.272 205.491 175.334C204.871 175.38 204.221 175.411 203.539 175.427C202.857 175.442 202.283 175.442 201.818 175.427C201.679 175.799 201.563 176.163 201.47 176.519C201.377 176.829 201.291 177.155 201.214 177.496C201.152 177.836 201.121 178.139 201.121 178.402C201.121 178.681 201.144 178.914 201.191 179.1C201.253 179.27 201.307 179.417 201.353 179.541C201.415 179.65 201.47 179.727 201.516 179.774C201.578 179.836 201.609 179.89 201.609 179.936C201.609 180.06 201.532 180.122 201.377 180.122C201.284 180.122 201.129 180.091 200.912 180.029C200.695 179.967 200.478 179.836 200.261 179.634C200.059 179.433 199.873 179.138 199.703 178.751C199.548 178.363 199.47 177.844 199.47 177.193C199.47 176.914 199.47 176.643 199.47 176.38C199.486 176.101 199.509 175.799 199.54 175.473C198.812 175.551 198.2 175.636 197.704 175.729C197.425 175.791 197.169 175.845 196.937 175.892ZM218.143 174.985C217.756 174.985 217.353 175.124 216.934 175.403C216.516 175.682 216.09 176.031 215.656 176.449C215.222 176.868 214.78 177.317 214.331 177.798C213.881 178.278 213.44 178.728 213.006 179.146C212.572 179.565 212.146 179.913 211.727 180.192C211.309 180.471 210.906 180.611 210.518 180.611C210.084 180.611 209.712 180.409 209.402 180.006C209.108 179.603 208.961 179.1 208.961 178.495C208.961 177.488 209.077 176.434 209.309 175.334C209.557 174.218 209.867 173.11 210.239 172.009C210.627 170.909 211.061 169.84 211.541 168.801C212.022 167.763 212.502 166.81 212.982 165.942C213.463 165.074 213.92 164.322 214.354 163.687C214.788 163.052 215.16 162.579 215.47 162.269C215.702 162.207 215.935 162.168 216.167 162.153C216.415 162.122 216.632 162.16 216.818 162.269C217.02 162.362 217.182 162.54 217.306 162.804C217.43 163.052 217.492 163.408 217.492 163.873C217.368 163.981 217.151 164.268 216.841 164.733C216.531 165.198 216.167 165.779 215.749 166.477C215.33 167.174 214.889 167.957 214.424 168.825C213.974 169.692 213.548 170.591 213.145 171.521C212.758 172.436 212.417 173.358 212.122 174.287C211.843 175.202 211.665 176.054 211.588 176.845C212.579 175.884 213.416 175.14 214.098 174.613C214.78 174.071 215.354 173.675 215.819 173.427C216.299 173.164 216.694 173.009 217.004 172.962C217.33 172.9 217.632 172.869 217.911 172.869C218.5 172.869 219.003 173.001 219.422 173.265C219.84 173.528 220.181 173.869 220.445 174.287C220.724 174.69 220.925 175.148 221.049 175.659C221.173 176.155 221.235 176.643 221.235 177.124C221.111 178.224 220.941 178.983 220.724 179.402C220.522 179.82 220.375 180.029 220.282 180.029C220.127 180.029 220.034 179.774 220.003 179.262C219.987 178.735 219.918 178.03 219.794 177.147C219.794 177.147 219.763 177.038 219.701 176.821C219.639 176.589 219.538 176.341 219.399 176.077C219.275 175.799 219.104 175.551 218.887 175.334C218.686 175.101 218.438 174.985 218.143 174.985Z" fill="#F1F1F1"/>
<path d="M11.0364 16.1383C11.3967 16.301 11.7861 16.487 12.2045 16.6962C12.6346 16.8938 13.0298 17.1437 13.3901 17.4459C13.7505 17.7365 14.0527 18.0852 14.2968 18.492C14.5408 18.8872 14.6629 19.3638 14.6629 19.9217C14.6629 20.5028 14.5234 21.0027 14.2444 21.4211C13.9655 21.8395 13.5993 22.1941 13.146 22.4846C12.6927 22.7636 12.1755 22.9844 11.5943 23.1472C11.0248 23.3099 10.4436 23.4378 9.85081 23.5307C9.26964 23.6237 8.70591 23.6818 8.15961 23.7051C7.61331 23.74 7.13675 23.7574 6.72993 23.7574C5.99766 23.769 5.49786 23.74 5.23052 23.6702C4.9748 23.6121 4.87601 23.5366 4.93412 23.4436C4.99224 23.3506 5.17821 23.246 5.49205 23.1297C5.8175 23.0019 6.19526 22.8856 6.62532 22.781C6.90429 22.7113 7.24717 22.6299 7.65399 22.5369C8.07243 22.4323 8.50831 22.3161 8.96162 22.1882C9.41493 22.0604 9.86825 21.9209 10.3216 21.7698C10.7865 21.6071 11.1991 21.4327 11.5594 21.2467C11.9198 21.0608 12.2104 20.8574 12.4312 20.6365C12.6637 20.4041 12.7799 20.1541 12.7799 19.8868C12.7799 19.6427 12.6753 19.387 12.4661 19.1197C12.2685 18.8523 11.943 18.5966 11.4897 18.3525C11.0364 18.1084 10.5598 17.8934 10.06 17.7074C9.56023 17.5098 9.06623 17.3413 8.57805 17.2018C8.08987 17.0623 7.61912 16.9461 7.16581 16.8531C6.72412 16.7601 6.32893 16.6846 5.98023 16.6265C5.80588 16.9287 5.59666 17.3006 5.35256 17.7423C5.10847 18.184 4.85276 18.6547 4.58542 19.1545C4.31808 19.6543 4.04493 20.1658 3.76597 20.6888C3.49864 21.2003 3.24292 21.6884 2.99883 22.1534C2.75474 22.6067 2.5339 23.0135 2.3363 23.3738C2.1387 23.7341 1.98179 24.0073 1.86555 24.1933C1.63308 24.5652 1.45292 24.8267 1.32506 24.9778C1.20883 25.1406 1.11003 25.2103 1.02867 25.1871C0.958928 25.1754 0.906623 25.1231 0.871753 25.0302C0.848506 24.9372 0.831071 24.8209 0.819448 24.6815C0.819448 24.542 0.82526 24.3909 0.836883 24.2281C0.86013 24.077 0.883377 23.9201 0.906623 23.7574C1.25532 22.6764 1.60984 21.6303 1.97016 20.6191C2.34211 19.6078 2.76636 18.6257 3.24292 17.6726C3.7311 16.7078 4.28903 15.7663 4.91669 14.8481C5.54435 13.9182 6.29406 13 7.16581 12.0933C6.89847 12.0352 6.64276 11.9945 6.39867 11.9713C6.15458 11.948 5.93373 11.9248 5.73614 11.9016C5.51529 11.8783 5.30607 11.8667 5.10847 11.8667C5.03873 11.7969 4.96899 11.6923 4.89925 11.5529C4.84114 11.4017 4.80045 11.239 4.77721 11.0647C4.76558 10.8903 4.78883 10.716 4.84695 10.5416C4.91669 10.3556 5.04454 10.1871 5.23052 10.036C5.5211 10.0244 5.84075 10.0302 6.18945 10.0534C6.49166 10.0767 6.83454 10.1232 7.21812 10.1929C7.61331 10.251 8.03175 10.344 8.47344 10.4719C8.5548 10.3789 8.61292 10.315 8.64779 10.2801C8.69428 10.2336 8.72915 10.1987 8.7524 10.1755C8.77565 10.1522 8.79308 10.1348 8.80471 10.1232C8.82795 10.0999 8.85701 10.0709 8.89188 10.036C8.99649 10.036 9.11273 10.0534 9.24058 10.0883C9.38006 10.1232 9.51373 10.1871 9.64159 10.2801C9.76945 10.3615 9.89149 10.4777 10.0077 10.6288C10.124 10.7799 10.2228 10.9775 10.3041 11.2216C10.5482 11.3494 10.7981 11.4947 11.0538 11.6575C11.3095 11.8202 11.542 12.012 11.7512 12.2328C11.9605 12.4537 12.129 12.6978 12.2568 12.9651C12.3963 13.2324 12.4661 13.5346 12.4661 13.8717C12.4661 14.1391 12.4254 14.3948 12.344 14.6389C12.2627 14.8829 12.1522 15.1038 12.0128 15.3014C11.8733 15.499 11.7164 15.6733 11.542 15.8244C11.3793 15.9639 11.2107 16.0685 11.0364 16.1383ZM9.11854 12.7384C8.8512 13.0058 8.53737 13.3429 8.17704 13.7497C7.82834 14.1449 7.49127 14.5633 7.16581 15.005C7.37503 15.005 7.67143 15.005 8.055 15.005C8.43857 14.9934 8.82214 14.9643 9.20571 14.9178C9.58928 14.8597 9.92055 14.7725 10.1995 14.6563C10.4785 14.5401 10.618 14.3657 10.618 14.1332C10.618 13.8659 10.4959 13.6044 10.2518 13.3487C10.0193 13.0929 9.64159 12.8895 9.11854 12.7384ZM15.7025 21.2642C15.7025 20.9968 15.7606 20.8051 15.8768 20.6888C16.0047 20.5726 16.15 20.5087 16.3127 20.497C16.3243 20.2065 16.5103 19.9042 16.8706 19.5904C17.2309 19.265 17.6901 18.9744 18.248 18.7187C18.8059 18.4513 19.4161 18.2363 20.0787 18.0736C20.7528 17.9108 21.4037 17.8353 22.0314 17.8469C22.3336 17.8469 22.6823 17.8876 23.0775 17.969C23.4727 18.0503 23.8446 18.184 24.1933 18.37C24.542 18.5443 24.8384 18.7884 25.0825 19.1022C25.3266 19.4161 25.4487 19.8054 25.4487 20.2704C25.4487 20.8283 25.2801 21.3165 24.943 21.7349C24.606 22.1417 24.1701 22.4788 23.6354 22.7462C23.1124 23.0135 22.5254 23.2111 21.8745 23.339C21.2236 23.4668 20.5843 23.5307 19.9566 23.5307C19.5033 23.5307 19.0267 23.4959 18.5269 23.4261C18.0271 23.3448 17.568 23.2169 17.1496 23.0426C16.7311 22.8566 16.3824 22.6183 16.1035 22.3277C15.8361 22.0371 15.7025 21.6826 15.7025 21.2642ZM18.1259 20.0612C18.0678 20.0844 17.9806 20.1193 17.8644 20.1658C17.7482 20.2123 17.6203 20.2646 17.4808 20.3227C17.3413 20.3808 17.2019 20.4389 17.0624 20.497C16.9229 20.5552 16.8009 20.6016 16.6963 20.6365C16.7544 20.6598 16.8125 20.6946 16.8706 20.7411C16.9287 20.776 16.9868 20.8167 17.045 20.8632C17.1612 21.084 17.4518 21.2758 17.9167 21.4385C18.3933 21.5896 18.9861 21.6652 19.6951 21.6652C20.067 21.6652 20.4797 21.6245 20.933 21.5431C21.3863 21.4618 21.8105 21.363 22.2057 21.2467C22.6009 21.1189 22.9322 20.9794 23.1995 20.8283C23.4669 20.6656 23.6005 20.5145 23.6005 20.375C23.6005 20.2355 23.5308 20.1251 23.3913 20.0437C23.2518 19.9507 23.0717 19.881 22.8508 19.8345C22.6416 19.7764 22.4033 19.7415 22.136 19.7299C21.8803 19.7066 21.6304 19.695 21.3863 19.695C20.8632 19.695 20.3169 19.7241 19.7474 19.7822C19.1895 19.8287 18.649 19.9217 18.1259 20.0612ZM39.8439 11.0647C39.6695 11.2623 39.4138 11.6226 39.0767 12.1456C38.7513 12.6571 38.3968 13.2615 38.0132 13.9589C37.6413 14.6563 37.2693 15.406 36.8974 16.208C36.5254 16.9984 36.2116 17.7714 35.9559 18.5269L36.4092 18.7361C36.5022 18.8872 36.537 19.0499 36.5138 19.2243C36.5022 19.387 36.4499 19.5439 36.3569 19.695C36.2639 19.8461 36.1418 19.9798 35.9907 20.096C35.8513 20.2006 35.7002 20.2704 35.5374 20.3053L35.3631 20.2529C35.3282 20.3343 35.2643 20.497 35.1713 20.7411C35.0899 20.9736 34.9853 21.2409 34.8575 21.5431C34.7296 21.8453 34.5959 22.165 34.4565 22.5021C34.317 22.8275 34.1833 23.1297 34.0554 23.4087C33.9276 23.676 33.8055 23.8969 33.6893 24.0712C33.5847 24.2572 33.5033 24.3502 33.4452 24.3502C33.3639 24.3502 33.2999 24.2572 33.2534 24.0712C33.2069 23.8969 33.1721 23.6702 33.1488 23.3913C33.1488 23.1123 33.1546 22.7985 33.1663 22.4498C33.1895 22.1011 33.2186 21.7582 33.2534 21.4211C33.2883 21.084 33.329 20.776 33.3755 20.497C33.422 20.2181 33.4743 19.9972 33.5324 19.8345C33.4394 19.8229 33.3522 19.8171 33.2709 19.8171C33.2011 19.8054 33.114 19.7996 33.0093 19.7996C32.7304 19.7996 32.4107 19.8287 32.0504 19.8868C31.7017 19.9449 31.3414 20.0205 30.9694 20.1135C30.5975 20.1948 30.2372 20.2994 29.8885 20.4273C29.5398 20.5435 29.2259 20.6656 28.947 20.7934C28.6796 20.9213 28.4588 21.055 28.2844 21.1944C28.1217 21.3223 28.0403 21.4385 28.0403 21.5431C28.0403 21.6361 28.1508 21.7117 28.3716 21.7698C28.5925 21.8279 28.8714 21.8744 29.2085 21.9093C29.5572 21.9441 29.935 21.9674 30.3418 21.979C30.7602 21.9906 31.1554 21.9965 31.5274 21.9965C31.9458 21.9965 32.2945 22.0197 32.5735 22.0662C32.8524 22.1127 32.9919 22.1882 32.9919 22.2928C32.9919 22.3858 32.9105 22.4846 32.7478 22.5892C32.5967 22.6822 32.3933 22.7752 32.1376 22.8682C31.8935 22.9612 31.6087 23.0484 31.2833 23.1297C30.9694 23.2111 30.6498 23.2866 30.3243 23.3564C29.9989 23.4145 29.6851 23.461 29.3828 23.4959C29.0806 23.5307 28.8191 23.5482 28.5983 23.5482C28.2612 23.5482 27.9415 23.5075 27.6393 23.4261C27.3488 23.3331 27.0872 23.2053 26.8548 23.0426C26.6223 22.8682 26.4363 22.6648 26.2968 22.4323C26.169 22.1882 26.1051 21.9093 26.1051 21.5954C26.1051 21.1421 26.2329 20.7353 26.4886 20.375C26.756 20.0147 27.093 19.7008 27.4999 19.4335C27.9183 19.1545 28.3832 18.9221 28.8947 18.7361C29.4177 18.5385 29.935 18.3816 30.4464 18.2653C30.9694 18.1375 31.4634 18.0445 31.9284 17.9864C32.3933 17.9283 32.7827 17.8992 33.0965 17.8992C33.2825 17.8992 33.4568 17.9108 33.6196 17.9341C33.7939 17.9457 33.9625 17.9631 34.1252 17.9864C34.3112 17.4168 34.532 16.8357 34.7877 16.2429C35.0551 15.6385 35.334 15.0515 35.6246 14.4819C35.9152 13.9124 36.2116 13.3661 36.5138 12.843C36.816 12.32 37.095 11.8551 37.3507 11.4482C37.6064 11.0298 37.833 10.6869 38.0306 10.4196C38.2282 10.1406 38.3677 9.96045 38.4491 9.87908C38.7862 9.85584 39.0942 9.9372 39.3731 10.1232C39.6637 10.3091 39.8206 10.623 39.8439 11.0647ZM46.2135 17.7772C46.5971 17.7772 46.8993 17.8702 47.1202 18.0561C47.341 18.2421 47.5037 18.4688 47.6083 18.7361C47.7246 19.0034 47.7943 19.2824 47.8176 19.573C47.8524 19.8519 47.8699 20.0902 47.8699 20.2878C47.8699 21.4734 47.6665 22.659 47.2596 23.8446C46.8645 25.0418 46.2833 26.146 45.5161 27.1572C44.749 28.1685 43.8075 29.0402 42.6917 29.7725C41.5758 30.5164 40.3031 31.022 38.8734 31.2893C38.7455 31.3126 38.5886 31.3358 38.4026 31.3591C38.2167 31.394 38.0365 31.4172 37.8621 31.4288C37.6878 31.4521 37.5367 31.4579 37.4088 31.4463C37.2926 31.4463 37.2345 31.423 37.2345 31.3765C37.2345 31.2952 37.31 31.2022 37.4611 31.0976C37.6239 30.9929 37.8331 30.8709 38.0888 30.7314C38.3445 30.6036 38.6351 30.4583 38.9606 30.2955C39.286 30.1444 39.6173 29.9701 39.9544 29.7725C40.7912 29.2959 41.5758 28.6973 42.3081 27.9767C43.052 27.2677 43.6971 26.4889 44.2434 25.6404C44.7897 24.7919 45.2197 23.8969 45.5336 22.9554C45.8474 22.0139 46.0043 21.0782 46.0043 20.1483C45.6789 20.5087 45.3011 20.8922 44.871 21.2991C44.441 21.7059 43.9877 22.0836 43.5111 22.4323C43.0345 22.7694 42.5406 23.0542 42.0291 23.2866C41.5293 23.5075 41.0411 23.6179 40.5646 23.6179C40.3902 23.6179 40.1868 23.5889 39.9544 23.5307C39.7219 23.4726 39.4952 23.3622 39.2744 23.1995C39.0652 23.0367 38.885 22.8101 38.7339 22.5195C38.5828 22.2173 38.5072 21.8279 38.5072 21.3514C38.5072 21.1886 38.5247 20.9852 38.5595 20.7411C38.5944 20.4854 38.6351 20.2239 38.6816 19.9566C38.7397 19.6892 38.8036 19.4277 38.8734 19.172C38.9431 18.9163 39.0187 18.7012 39.1 18.5269C39.2744 18.3525 39.4604 18.2305 39.658 18.1607C39.8556 18.091 40.0357 18.0852 40.1984 18.1433C40.3728 18.1898 40.5181 18.3002 40.6343 18.4746C40.7506 18.6373 40.8145 18.8698 40.8261 19.172C40.5355 19.9042 40.3902 20.6656 40.3902 21.456C40.3902 21.6187 40.4425 21.7001 40.5471 21.7001C40.9307 21.7001 41.3027 21.6071 41.663 21.4211C42.0349 21.2235 42.3895 20.9794 42.7265 20.6888C43.0636 20.3982 43.3891 20.0844 43.7029 19.7473C44.0283 19.3986 44.3364 19.079 44.627 18.7884C44.9175 18.4978 45.1907 18.2595 45.4464 18.0736C45.7137 17.876 45.9695 17.7772 46.2135 17.7772Z" fill="#F1F1F1"/>
<path d="M319.138 10.437C319.278 10.5997 319.377 10.7683 319.435 10.9426C319.505 11.117 319.516 11.2855 319.47 11.4482C319.435 11.5993 319.336 11.7388 319.173 11.8667C319.011 11.9945 318.778 12.0933 318.476 12.1631C318.453 12.1631 318.377 12.1398 318.249 12.0933C318.133 12.0468 317.976 12.0004 317.778 11.9539C317.581 11.8957 317.348 11.8434 317.081 11.7969C316.814 11.7504 316.517 11.7272 316.192 11.7272C315.704 11.7272 315.326 11.8202 315.059 12.0062C314.803 12.1805 314.675 12.3607 314.675 12.5466C314.675 12.7559 314.756 13.0116 314.919 13.3138C315.093 13.616 315.308 13.9531 315.564 14.325C315.75 14.6156 315.948 14.912 316.157 15.2142C316.378 15.5164 316.575 15.8419 316.75 16.1906C316.936 16.5277 317.087 16.8996 317.203 17.3064C317.319 17.7016 317.377 18.1375 317.377 18.6141C317.377 19.3347 317.238 20.003 316.959 20.6191C316.692 21.2351 316.32 21.764 315.843 22.2057C315.367 22.6474 314.809 22.9961 314.169 23.2518C313.53 23.4959 312.844 23.6179 312.112 23.6179C311.426 23.6179 310.851 23.5424 310.386 23.3913C309.921 23.2285 309.537 23.0484 309.235 22.8508C308.945 22.6416 308.735 22.4381 308.608 22.2405C308.48 22.0429 308.416 21.8977 308.416 21.8047C308.416 21.7233 308.474 21.7001 308.59 21.7349C308.706 21.7698 308.875 21.8279 309.096 21.9093C309.317 21.9906 309.584 22.072 309.898 22.1534C310.212 22.2347 310.572 22.2754 310.979 22.2754C311.572 22.2754 312.141 22.1766 312.687 21.979C313.234 21.7698 313.716 21.5025 314.135 21.177C314.553 20.8399 314.884 20.468 315.128 20.0612C315.372 19.6427 315.494 19.2185 315.494 18.7884C315.494 18.3932 315.425 18.0154 315.285 17.6551C315.157 17.2948 314.995 16.9461 314.797 16.609C314.599 16.2719 314.379 15.9407 314.135 15.6152C313.902 15.2781 313.687 14.9469 313.489 14.6214C313.292 14.296 313.123 13.9705 312.984 13.6451C312.856 13.308 312.792 12.9593 312.792 12.599C312.792 12.041 312.926 11.5877 313.193 11.239C313.472 10.8787 313.797 10.5997 314.169 10.4021C314.541 10.1929 314.925 10.0534 315.32 9.98369C315.727 9.91395 316.058 9.87908 316.314 9.87908C316.721 9.87908 317.098 9.90814 317.447 9.96626C317.796 10.0244 318.098 10.0883 318.354 10.158C318.656 10.2394 318.918 10.3324 319.138 10.437ZM326.153 17.8643C326.316 17.8643 326.548 17.8818 326.85 17.9166C327.164 17.9399 327.501 17.9922 327.862 18.0736C328.234 18.1549 328.606 18.2653 328.977 18.4048C329.361 18.5443 329.71 18.7245 330.024 18.9453C330.337 19.1545 330.593 19.4161 330.791 19.7299C330.988 20.0321 331.087 20.3924 331.087 20.8109C331.087 21.1944 330.977 21.5315 330.756 21.8221C330.547 22.1011 330.268 22.3393 329.919 22.5369C329.582 22.7229 329.198 22.8798 328.768 23.0077C328.338 23.1239 327.914 23.2169 327.495 23.2866C327.077 23.3564 326.682 23.4029 326.31 23.4261C325.95 23.4494 325.659 23.461 325.438 23.461C325.066 23.461 324.706 23.4552 324.357 23.4436C324.008 23.4319 323.706 23.3971 323.451 23.339C323.148 24.0131 322.881 24.7105 322.649 25.4312C322.416 26.1634 322.207 26.826 322.021 27.4188C321.847 28.0232 321.684 28.5172 321.533 28.9007C321.393 29.2959 321.26 29.4935 321.132 29.4935C321.004 29.4935 320.905 29.3889 320.835 29.1797C320.766 28.9821 320.719 28.7148 320.696 28.3777C320.673 28.0406 320.673 27.6454 320.696 27.1921C320.731 26.7504 320.789 26.2797 320.87 25.7799C320.952 25.2917 321.05 24.7919 321.167 24.2804C321.294 23.7806 321.446 23.3041 321.62 22.8508C321.05 22.5951 320.649 22.3975 320.417 22.258C320.184 22.1069 320.068 21.9848 320.068 21.8918C320.068 21.8337 320.132 21.793 320.26 21.7698C320.388 21.7349 320.551 21.7175 320.748 21.7175C320.864 21.7175 321.05 21.7233 321.306 21.7349C321.562 21.7466 321.841 21.7582 322.143 21.7698C322.352 21.27 322.585 20.7992 322.84 20.3576C323.108 19.9159 323.375 19.5323 323.642 19.2068C323.573 19.0209 323.549 18.8291 323.573 18.6315C323.607 18.4339 323.683 18.2363 323.799 18.0387C323.869 18.0271 323.956 18.0096 324.061 17.9864C324.165 17.9631 324.305 17.9457 324.479 17.9341C324.665 17.9108 324.892 17.8934 325.159 17.8818C325.427 17.8702 325.758 17.8643 326.153 17.8643ZM324.148 21.7349C324.357 21.7349 324.63 21.7291 324.967 21.7175C325.304 21.6942 325.659 21.6652 326.031 21.6303C326.403 21.5954 326.775 21.5548 327.147 21.5083C327.53 21.4618 327.867 21.4037 328.158 21.3339C328.46 21.2642 328.704 21.1886 328.89 21.1073C329.088 21.0143 329.187 20.9097 329.187 20.7934C329.187 20.654 329.059 20.5261 328.803 20.4099C328.547 20.282 328.228 20.1774 327.844 20.096C327.472 20.0147 327.071 19.9566 326.641 19.9217C326.223 19.8752 325.845 19.8636 325.508 19.8868C325.275 20.1658 325.043 20.4447 324.81 20.7237C324.578 20.991 324.357 21.3281 324.148 21.7349ZM334.38 22.2928C334.148 22.5951 333.933 22.8682 333.735 23.1123C333.549 23.3564 333.375 23.4784 333.212 23.4784C333.096 23.4784 332.991 23.4261 332.898 23.3215C332.817 23.2053 332.747 23.0716 332.689 22.9205C332.643 22.7578 332.602 22.5834 332.567 22.3975C332.544 22.2115 332.532 22.0371 332.532 21.8744C332.567 21.6768 332.637 21.4037 332.742 21.055C332.846 20.6946 332.968 20.3227 333.108 19.9391C333.247 19.5555 333.392 19.1952 333.544 18.8581C333.695 18.5094 333.834 18.2479 333.962 18.0736C334.264 18.1084 334.549 18.2189 334.816 18.4048C335.095 18.5792 335.316 18.7942 335.479 19.0499C335.235 19.5962 335.026 20.1193 334.851 20.6191C334.677 21.1073 334.52 21.6652 334.38 22.2928ZM335.915 15.1793C335.984 15.1793 336.072 15.1852 336.176 15.1968C336.281 15.2084 336.38 15.2433 336.473 15.3014C336.577 15.3595 336.664 15.4583 336.734 15.5978C336.804 15.7373 336.839 15.9291 336.839 16.1731C336.839 16.3707 336.781 16.5451 336.664 16.6962C336.548 16.8357 336.409 16.9519 336.246 17.0449C336.095 17.1379 335.932 17.2134 335.758 17.2716C335.595 17.318 335.461 17.3413 335.357 17.3413C335.148 17.3413 334.985 17.3064 334.869 17.2367C334.764 17.1553 334.683 17.0681 334.625 16.9752C334.578 16.8705 334.549 16.7717 334.537 16.6788C334.537 16.5741 334.537 16.4928 334.537 16.4347C334.537 16.2836 334.578 16.1325 334.659 15.9814C334.752 15.8303 334.863 15.6966 334.991 15.5803C335.119 15.4525 335.264 15.3537 335.427 15.284C335.589 15.2142 335.752 15.1793 335.915 15.1793ZM339.22 23.6528C338.952 23.6528 338.72 23.583 338.522 23.4436C338.336 23.2925 338.185 23.0949 338.069 22.8508C337.953 22.6067 337.865 22.3277 337.807 22.0139C337.761 21.7001 337.743 21.3688 337.755 21.0201C337.778 20.4041 337.86 19.8287 337.999 19.294C338.139 18.7477 338.371 18.3002 338.697 17.9515C339.103 17.8934 339.435 17.9748 339.69 18.1956C339.958 18.4048 340.115 18.707 340.161 19.1022C340.08 19.2533 339.993 19.4277 339.9 19.6253C339.807 19.8113 339.754 20.0553 339.743 20.3576C340.103 19.7648 340.51 19.2417 340.963 18.7884C341.416 18.3235 341.881 17.9399 342.358 17.6377C342.846 17.3239 343.334 17.0914 343.822 16.9403C344.322 16.7776 344.799 16.6962 345.252 16.6962C345.485 16.6962 345.642 16.7253 345.723 16.7834C345.816 16.8299 345.862 16.8822 345.862 16.9403C345.862 17.01 345.769 17.1146 345.583 17.2541C345.409 17.3936 345.171 17.5796 344.869 17.812C344.566 18.0329 344.218 18.306 343.822 18.6315C343.427 18.9569 343.02 19.3347 342.602 19.7648C342.184 20.1948 341.759 20.683 341.329 21.2293C340.911 21.7756 340.521 22.3858 340.161 23.06C339.964 23.4552 339.65 23.6528 339.22 23.6528ZM348.232 22.2928C348 22.5951 347.785 22.8682 347.587 23.1123C347.401 23.3564 347.227 23.4784 347.064 23.4784C346.948 23.4784 346.843 23.4261 346.75 23.3215C346.669 23.2053 346.599 23.0716 346.541 22.9205C346.495 22.7578 346.454 22.5834 346.419 22.3975C346.396 22.2115 346.384 22.0371 346.384 21.8744C346.419 21.6768 346.489 21.4037 346.594 21.055C346.698 20.6946 346.82 20.3227 346.96 19.9391C347.099 19.5555 347.244 19.1952 347.396 18.8581C347.547 18.5094 347.686 18.2479 347.814 18.0736C348.116 18.1084 348.401 18.2189 348.668 18.4048C348.947 18.5792 349.168 18.7942 349.331 19.0499C349.087 19.5962 348.878 20.1193 348.703 20.6191C348.529 21.1073 348.372 21.6652 348.232 22.2928ZM349.767 15.1793C349.836 15.1793 349.924 15.1852 350.028 15.1968C350.133 15.2084 350.232 15.2433 350.325 15.3014C350.429 15.3595 350.516 15.4583 350.586 15.5978C350.656 15.7373 350.691 15.9291 350.691 16.1731C350.691 16.3707 350.633 16.5451 350.516 16.6962C350.4 16.8357 350.261 16.9519 350.098 17.0449C349.947 17.1379 349.784 17.2134 349.61 17.2716C349.447 17.318 349.313 17.3413 349.209 17.3413C349 17.3413 348.837 17.3064 348.721 17.2367C348.616 17.1553 348.535 17.0681 348.477 16.9752C348.43 16.8705 348.401 16.7717 348.389 16.6788C348.389 16.5741 348.389 16.4928 348.389 16.4347C348.389 16.2836 348.43 16.1325 348.511 15.9814C348.604 15.8303 348.715 15.6966 348.843 15.5803C348.971 15.4525 349.116 15.3537 349.279 15.284C349.441 15.2142 349.604 15.1793 349.767 15.1793ZM350.84 20.5842C350.735 20.5377 350.642 20.4505 350.561 20.3227C350.48 20.1832 350.416 20.0321 350.369 19.8694C350.334 19.695 350.317 19.5149 350.317 19.3289C350.329 19.1429 350.369 18.9628 350.439 18.7884C350.695 18.7187 350.974 18.6547 351.276 18.5966C351.532 18.5385 351.822 18.4862 352.148 18.4397C352.485 18.3932 352.839 18.3583 353.211 18.3351C353.444 17.6726 353.746 16.9519 354.118 16.1731C354.49 15.3944 354.873 14.6389 355.268 13.9066C355.675 13.1627 356.07 12.4769 356.454 11.8492C356.838 11.21 357.163 10.6985 357.43 10.315C357.582 10.3033 357.733 10.3091 357.884 10.3324C358.046 10.3556 358.198 10.4079 358.337 10.4893C358.477 10.5707 358.599 10.6869 358.703 10.838C358.819 10.9775 358.901 11.1635 358.947 11.3959C358.831 11.5587 358.674 11.7969 358.477 12.1108C358.279 12.413 358.058 12.7675 357.814 13.1743C357.582 13.5811 357.332 14.017 357.064 14.4819C356.797 14.9469 356.541 15.4118 356.297 15.8767C356.065 16.3301 355.844 16.7717 355.635 17.2018C355.437 17.6203 355.286 17.9922 355.181 18.3177C355.762 18.3177 356.286 18.37 356.75 18.4746C357.215 18.5792 357.611 18.707 357.936 18.8581C358.261 19.0092 358.511 19.1603 358.686 19.3115C358.86 19.4626 358.947 19.5788 358.947 19.6602C358.947 19.788 358.779 19.8926 358.442 19.974C358.116 20.0553 357.721 20.1193 357.256 20.1658C356.791 20.2006 356.303 20.2239 355.792 20.2355C355.28 20.2471 354.85 20.2471 354.501 20.2355C354.397 20.5145 354.31 20.7876 354.24 21.055C354.17 21.2874 354.106 21.5315 354.048 21.7872C354.002 22.0429 353.978 22.2696 353.978 22.4672C353.978 22.6764 353.996 22.8508 354.031 22.9903C354.077 23.1181 354.118 23.2285 354.153 23.3215C354.199 23.4029 354.24 23.461 354.275 23.4959C354.321 23.5424 354.344 23.583 354.344 23.6179C354.344 23.7109 354.286 23.7574 354.17 23.7574C354.1 23.7574 353.984 23.7341 353.821 23.6877C353.659 23.6412 353.496 23.5424 353.333 23.3913C353.182 23.2402 353.043 23.0193 352.915 22.7287C352.798 22.4381 352.74 22.0488 352.74 21.5606C352.74 21.3514 352.74 21.1479 352.74 20.9503C352.752 20.7411 352.769 20.5145 352.793 20.2704C352.246 20.3285 351.787 20.3924 351.415 20.4622C351.206 20.5087 351.014 20.5493 350.84 20.5842Z" fill="#F1F1F1"/>
<circle opacity="0.3" cx="175.324" cy="179" r="157.101" stroke="#F1F1F1" stroke-width="1.16234" stroke-dasharray="2.94 2.94"/>
<path fill-rule="evenodd" clip-rule="evenodd" d="M175.811 335.285C140.38 335.285 105.972 323.403 78.0904 301.539L71.2959 296.211L75.0956 295.751C75.4143 295.713 75.6414 295.423 75.6028 295.105C75.5643 294.786 75.2747 294.559 74.956 294.598L69.7634 295.226C69.4447 295.264 69.2177 295.554 69.2562 295.872L69.8844 301.065C69.9229 301.384 70.2125 301.611 70.5311 301.572C70.8498 301.534 71.0768 301.244 71.0383 300.926L70.5786 297.126L77.3732 302.454C105.427 324.453 140.04 336.42 175.688 336.447V336.528H308.009V335.365H175.811V335.285Z" fill="url(#paint0_linear_1132_3272)"/>
<path fill-rule="evenodd" clip-rule="evenodd" d="M331.685 37.4906L331.685 179.367H331.711C331.679 217.437 317.687 254.209 292.34 282.687L292.132 278.867C292.115 278.546 291.841 278.301 291.52 278.318C291.2 278.335 290.954 278.609 290.972 278.93L291.256 284.153C291.273 284.473 291.547 284.719 291.868 284.701L297.09 284.417C297.411 284.4 297.657 284.126 297.639 283.805C297.622 283.485 297.348 283.239 297.027 283.257L293.204 283.465C319.397 254.038 333.556 215.82 332.848 176.417L332.848 176.417L332.848 37.4906H331.685Z" fill="url(#paint1_linear_1132_3272)"/>
<path fill-rule="evenodd" clip-rule="evenodd" d="M175.512 21.9206C213.373 22.6892 249.801 36.6172 278.526 61.3341L279.739 62.3776L275.922 62.6638C275.602 62.6878 275.362 62.9668 275.386 63.2868C275.41 63.6069 275.689 63.8469 276.009 63.8229L281.225 63.4317C281.545 63.4077 281.785 63.1288 281.761 62.8087L281.37 57.5929C281.346 57.2728 281.067 57.0328 280.747 57.0568C280.427 57.0808 280.187 57.3597 280.211 57.6798L280.497 61.4965L279.284 60.453C250.024 35.2757 212.828 21.2137 174.23 20.7372L174.227 20.9221L52.3047 20.9221L52.3047 22.0844L175.512 22.0844V21.9206Z" fill="url(#paint2_linear_1132_3272)"/>
<path d="M327.006 330.248C327.006 330.725 326.936 331.277 326.796 331.905C326.657 332.532 326.483 333.177 326.273 333.84C326.064 334.491 325.832 335.13 325.576 335.758C325.332 336.374 325.099 336.903 324.879 337.344C324.576 337.949 324.315 338.437 324.094 338.809C323.885 339.181 323.734 339.367 323.641 339.367C323.594 339.367 323.571 339.291 323.571 339.14C323.583 338.989 323.606 338.815 323.641 338.617C323.676 338.408 323.716 338.199 323.763 337.99C323.809 337.78 323.85 337.612 323.885 337.484C324.059 336.938 324.228 336.368 324.39 335.775C324.565 335.171 324.716 334.578 324.844 333.997C324.972 333.404 325.076 332.829 325.158 332.271C325.239 331.713 325.28 331.207 325.28 330.754C325.28 330.37 325.256 330.057 325.21 329.812C325.175 329.568 325.128 329.371 325.07 329.22C325.012 329.069 324.942 328.958 324.861 328.888C324.791 328.807 324.722 328.749 324.652 328.714C324.466 328.772 324.222 328.929 323.92 329.185C323.629 329.429 323.321 329.714 322.996 330.039C322.67 330.365 322.356 330.696 322.054 331.033C321.752 331.37 321.508 331.655 321.322 331.887C321.206 332.027 321.078 332.195 320.938 332.393C320.81 332.579 320.659 332.759 320.485 332.933C320.322 333.108 320.148 333.259 319.962 333.387C319.776 333.503 319.572 333.561 319.352 333.561C319.038 333.561 318.823 333.474 318.707 333.3C318.602 333.125 318.55 332.904 318.55 332.637C318.55 332.37 318.579 332.044 318.637 331.661C318.707 331.277 318.782 330.876 318.863 330.458C318.945 330.028 319.02 329.609 319.09 329.202C319.171 328.784 319.224 328.406 319.247 328.069C318.736 328.453 318.253 328.947 317.8 329.551C317.347 330.155 316.922 330.8 316.527 331.486C316.132 332.172 315.777 332.869 315.464 333.578C315.161 334.276 314.906 334.927 314.696 335.531C314.476 336.147 314.295 336.717 314.156 337.24C314.017 337.763 313.906 338.216 313.825 338.6C313.743 338.972 313.685 339.268 313.65 339.489C313.627 339.71 313.616 339.832 313.616 339.855C313.511 340.088 313.366 340.291 313.18 340.465C313.005 340.64 312.825 340.738 312.639 340.762C312.453 340.797 312.279 340.733 312.116 340.57C311.965 340.419 311.855 340.134 311.785 339.716C311.785 339.239 311.884 338.6 312.081 337.798C312.279 336.984 312.564 336.031 312.936 334.938C313.18 334.229 313.464 333.509 313.79 332.776C314.127 332.044 314.487 331.335 314.871 330.649C315.254 329.964 315.661 329.319 316.091 328.714C316.521 328.11 316.951 327.587 317.381 327.145C317.812 326.692 318.236 326.337 318.654 326.081C319.084 325.814 319.491 325.68 319.875 325.68C320.2 325.68 320.45 325.768 320.624 325.942C320.799 326.105 320.927 326.302 321.008 326.535C321.089 326.756 321.136 326.982 321.147 327.215C321.171 327.447 321.182 327.621 321.182 327.738C321.182 327.877 321.159 328.104 321.113 328.418C321.078 328.72 321.031 329.04 320.973 329.377C321.217 329.121 321.479 328.848 321.758 328.557C322.037 328.255 322.333 327.982 322.647 327.738C322.961 327.482 323.292 327.273 323.641 327.11C324.001 326.947 324.379 326.866 324.774 326.866C325.251 326.866 325.628 326.982 325.907 327.215C326.198 327.436 326.419 327.714 326.57 328.052C326.732 328.389 326.837 328.755 326.884 329.15C326.942 329.545 326.982 329.911 327.006 330.248ZM329.895 337.867C329.662 338.17 329.447 338.443 329.25 338.687C329.064 338.931 328.889 339.053 328.727 339.053C328.61 339.053 328.506 339.001 328.413 338.896C328.331 338.78 328.262 338.646 328.204 338.495C328.157 338.332 328.116 338.158 328.082 337.972C328.058 337.786 328.047 337.612 328.047 337.449C328.082 337.251 328.151 336.978 328.256 336.63C328.361 336.269 328.483 335.897 328.622 335.514C328.762 335.13 328.907 334.77 329.058 334.433C329.209 334.084 329.349 333.823 329.476 333.648C329.779 333.683 330.063 333.794 330.331 333.979C330.61 334.154 330.83 334.369 330.993 334.625C330.749 335.171 330.54 335.694 330.366 336.194C330.191 336.682 330.034 337.24 329.895 337.867ZM331.429 330.754C331.499 330.754 331.586 330.76 331.691 330.771C331.795 330.783 331.894 330.818 331.987 330.876C332.092 330.934 332.179 331.033 332.249 331.172C332.318 331.312 332.353 331.504 332.353 331.748C332.353 331.945 332.295 332.12 332.179 332.271C332.063 332.41 331.923 332.527 331.76 332.62C331.609 332.713 331.447 332.788 331.272 332.846C331.109 332.893 330.976 332.916 330.871 332.916C330.662 332.916 330.499 332.881 330.383 332.811C330.278 332.73 330.197 332.643 330.139 332.55C330.092 332.445 330.063 332.346 330.052 332.253C330.052 332.149 330.052 332.067 330.052 332.009C330.052 331.858 330.092 331.707 330.174 331.556C330.267 331.405 330.377 331.271 330.505 331.155C330.633 331.027 330.778 330.928 330.941 330.859C331.104 330.789 331.266 330.754 331.429 330.754ZM332.956 333.718C333.13 333.637 333.31 333.59 333.496 333.578C333.682 333.567 333.856 333.602 334.019 333.683C334.182 333.753 334.321 333.863 334.438 334.014C334.565 334.165 334.647 334.351 334.682 334.572C334.589 334.712 334.502 334.869 334.42 335.043C334.339 335.194 334.257 335.38 334.176 335.601C334.095 335.81 334.013 336.048 333.932 336.316C334.164 336.107 334.467 335.839 334.839 335.514C335.222 335.177 335.635 334.857 336.076 334.555C336.53 334.241 336.995 333.974 337.471 333.753C337.948 333.52 338.401 333.404 338.831 333.404C339.261 333.404 339.651 333.468 339.999 333.596C340.36 333.712 340.668 333.904 340.923 334.171C341.179 334.427 341.377 334.764 341.516 335.182C341.656 335.589 341.725 336.089 341.725 336.682C341.725 337.205 341.679 337.652 341.586 338.024C341.493 338.396 341.388 338.704 341.272 338.948C341.168 339.181 341.063 339.355 340.958 339.472C340.865 339.588 340.819 339.646 340.819 339.646C340.737 339.646 340.65 339.46 340.557 339.088C340.464 338.728 340.418 338.234 340.418 337.606C340.418 337.246 340.36 336.92 340.243 336.63C340.139 336.339 340.005 336.095 339.842 335.897C339.68 335.688 339.511 335.531 339.337 335.427C339.162 335.31 339.011 335.252 338.884 335.252C338.651 335.252 338.372 335.345 338.047 335.531C337.733 335.717 337.396 335.955 337.035 336.246C336.675 336.525 336.303 336.827 335.92 337.153C335.548 337.478 335.181 337.786 334.821 338.077C334.472 338.356 334.147 338.588 333.845 338.774C333.543 338.96 333.293 339.053 333.095 339.053C332.898 339.053 332.723 339.007 332.572 338.914C332.421 338.821 332.287 338.704 332.171 338.565C332.055 338.425 331.968 338.269 331.91 338.094C331.851 337.92 331.822 337.751 331.822 337.589C331.822 337.228 331.88 336.81 331.997 336.333C332.125 335.845 332.264 335.398 332.415 334.991C332.566 334.584 332.694 334.253 332.799 333.997C332.915 333.741 332.967 333.648 332.956 333.718ZM356.326 326.639C356.152 326.837 355.896 327.197 355.559 327.72C355.234 328.232 354.879 328.836 354.496 329.534C354.124 330.231 353.752 330.981 353.38 331.783C353.008 332.573 352.694 333.346 352.438 334.102L352.892 334.311C352.985 334.462 353.019 334.625 352.996 334.799C352.985 334.962 352.932 335.119 352.839 335.27C352.746 335.421 352.624 335.554 352.473 335.671C352.334 335.775 352.182 335.845 352.02 335.88L351.845 335.828C351.811 335.909 351.747 336.072 351.654 336.316C351.572 336.548 351.468 336.816 351.34 337.118C351.212 337.42 351.078 337.74 350.939 338.077C350.799 338.402 350.666 338.704 350.538 338.983C350.41 339.251 350.288 339.472 350.172 339.646C350.067 339.832 349.986 339.925 349.928 339.925C349.846 339.925 349.782 339.832 349.736 339.646C349.689 339.472 349.654 339.245 349.631 338.966C349.631 338.687 349.637 338.373 349.649 338.024C349.672 337.676 349.701 337.333 349.736 336.996C349.771 336.659 349.811 336.351 349.858 336.072C349.904 335.793 349.957 335.572 350.015 335.409C349.922 335.398 349.835 335.392 349.753 335.392C349.683 335.38 349.596 335.374 349.492 335.374C349.213 335.374 348.893 335.403 348.533 335.461C348.184 335.52 347.824 335.595 347.452 335.688C347.08 335.769 346.72 335.874 346.371 336.002C346.022 336.118 345.708 336.24 345.429 336.368C345.162 336.496 344.941 336.63 344.767 336.769C344.604 336.897 344.523 337.013 344.523 337.118C344.523 337.211 344.633 337.286 344.854 337.344C345.075 337.403 345.354 337.449 345.691 337.484C346.04 337.519 346.417 337.542 346.824 337.554C347.243 337.565 347.638 337.571 348.01 337.571C348.428 337.571 348.777 337.594 349.056 337.641C349.335 337.687 349.474 337.763 349.474 337.867C349.474 337.96 349.393 338.059 349.23 338.164C349.079 338.257 348.876 338.35 348.62 338.443C348.376 338.536 348.091 338.623 347.766 338.704C347.452 338.786 347.132 338.861 346.807 338.931C346.481 338.989 346.167 339.036 345.865 339.071C345.563 339.105 345.301 339.123 345.081 339.123C344.744 339.123 344.424 339.082 344.122 339.001C343.831 338.908 343.57 338.78 343.337 338.617C343.105 338.443 342.919 338.239 342.779 338.007C342.651 337.763 342.587 337.484 342.587 337.17C342.587 336.717 342.715 336.31 342.971 335.95C343.238 335.589 343.575 335.275 343.982 335.008C344.401 334.729 344.866 334.497 345.377 334.311C345.9 334.113 346.417 333.956 346.929 333.84C347.452 333.712 347.946 333.619 348.411 333.561C348.876 333.503 349.265 333.474 349.579 333.474C349.765 333.474 349.939 333.485 350.102 333.509C350.276 333.52 350.445 333.538 350.608 333.561C350.794 332.991 351.014 332.41 351.27 331.818C351.537 331.213 351.816 330.626 352.107 330.057C352.398 329.487 352.694 328.941 352.996 328.418C353.298 327.895 353.577 327.43 353.833 327.023C354.089 326.604 354.315 326.262 354.513 325.994C354.711 325.715 354.85 325.535 354.931 325.454C355.269 325.43 355.577 325.512 355.855 325.698C356.146 325.884 356.303 326.198 356.326 326.639Z" fill="#F1F1F1"/>
<defs>
<linearGradient id="paint0_linear_1132_3272" x1="69.2517" y1="295.822" x2="74.3588" y2="275.987" gradientUnits="userSpaceOnUse">
<stop stop-color="#99999D"/>
<stop offset="1" stop-color="#99999D" stop-opacity="0"/>
</linearGradient>
<linearGradient id="paint1_linear_1132_3272" x1="291.326" y1="282.866" x2="256.429" y2="271.582" gradientUnits="userSpaceOnUse">
<stop stop-color="#99999D"/>
<stop offset="1" stop-color="#99999D" stop-opacity="0"/>
</linearGradient>
<linearGradient id="paint2_linear_1132_3272" x1="282.13" y1="63.6985" x2="276.549" y2="83.8181" gradientUnits="userSpaceOnUse">
<stop stop-color="#99999D"/>
<stop offset="1" stop-color="#99999D" stop-opacity="0"/>
</linearGradient>
</defs>
</svg>
